<?xml version="1.0" standalone="no"?>
<!DOCTYPE svg PUBLIC "-//W3C//DTD SVG 1.1//EN" "http://www.w3.org/Graphics/SVG/1.1/DTD/svg11.dtd" >
<svg xmlns="http://www.w3.org/2000/svg">
<metadata>
Generated by SVGconv.
Copyright   : Copyright (c) 2010 by Letterhead Studio. All rights reserved.
Designer    : Yuri Gordon
Foundry     : Letterhead Studio
Foundry URL : www.letterhead.ru
</metadata>
<defs>
<font id="ConquerorSans" horiz-adv-x="533" >
<font-face units-per-em="1000" ascent="985" descent="322" />
<missing-glyph horiz-adv-x="500" />
<glyph unicode="&#13;" horiz-adv-x="275" />
<glyph unicode="&#32;" horiz-adv-x="275" />
<glyph unicode="&#33;" horiz-adv-x="225" d="M84 195l-26 505h110l-24 -505zM50 57q0 26 18.5 44.5q18.5 18.5 44.5 18.5q26 0 44 -18.5q18 -18.5 18 -44.5q0 -26 -18 -44q-18 -18 -44 -18q-26 0 -44.5 18t-18.5 44z" />
<glyph unicode="&#34;" horiz-adv-x="448" d="M398 661q0 -14 -3.5 -24.5q-3.5 -10.5 -13.5 -22.5l-132 -168l-39 26l79 189q8 19 22.5 35q14.5 16 34.5 16q17 0 34.5 -11.5q17.5 -11.5 17.5 -39.5zt0 0zM238 661q0 -14 -3.5 -24.5q-3.5 -10.5 -13.5 -22.5l-132 -168l-39 26l79 189q8 19 22.5 35q14.5 16 34.5 16q17 0 34.5 -11.5t17.5 -39.5z" />
<glyph unicode="&#35;" horiz-adv-x="718" d="M524 414l-44 -128h146v-65h-167l-73 -221h-72l74 221h-143l-72 -221h-72l75 221h-126v65h148l42 128h-140v65h162l78 221h73l-79 -221h143l75 221h72l-78 -221h122v-65zM268 286h140l45 128l-141 0z" />
<glyph unicode="&#36;" horiz-adv-x="550" d="M500 198q0 -42 -14 -80.5q-14 -38.5 -42.5 -67.5q-28.5 -29 -72 -46.5q-43.5 -17.5 -103.5 -18.5l-10 -69h-67l11 77q-48 12 -87.5 36q-39.5 24 -64.5 42l48 77q19 -14 50 -33q31 -19 68 -30l35 241q-32 14 -62 30q-30 16 -54 38q-24 22 -38.5 52q-14.5 30 -14.5 72q0 39 11.5 74.5q11.5 35.5 38 62.5q26.5 27 70 43q43.5 16 106.5 17l9 62h67l-10 -68q32 -5 61 -15.5q29 -10.5 52 -22.5l-39 -82q-16 7 -38.5 15q-22.5 8 -49.5 13l-32 -218q32 -14 63 -30.5q31 -16.5 55 -40q24 -23.5 39 -55q15 -31.5 15 -75.5zt0 0zM406 184q0 41 -27 67q-27 26 -66 46l-32 -222q57 0 91 27.5q34 27.5 34 81.5zt0 0zM173 531q0 -38 26.5 -61.5q26.5 -23.5 66.5 -42.5l29 198q-24 0 -46 -5q-22 -5 -39 -16q-17 -11 -27 -29t-10 -44z" />
<glyph unicode="&#37;" horiz-adv-x="741" d="M609 148q0 41 -18.5 67.5q-18.5 26.5 -60.5 26.5q-43 0 -58.5 -26.5q-15.5 -26.5 -15.5 -67.5q0 -19 3.5 -36q3.5 -17 12 -29.5q8.5 -12.5 23 -20q14.5 -7.5 35.5 -7.5q42 0 60.5 27.5q18.5 27.5 18.5 65.5zt0 0zM673 148q0 -33 -11 -61q-11 -28 -30.5 -48.5q-19.5 -20.5 -45.5 -32q-26 -11.5 -56 -11.5q-31 0 -57 11.5q-26 11.5 -44.5 32q-18.5 20.5 -28.5 48.5q-10 28 -10 61q0 78 38.5 116q38.5 38 101.5 38q30 0 56 -9.5q26 -9.5 45.5 -29q19.5 -19.5 30.5 -48q11 -28.5 11 -67.5zt0 0zM351 551q0 -33 -11 -61q-11 -28 -30.5 -48.5q-19.5 -20.5 -45.5 -32q-26 -11.5 -56 -11.5q-31 0 -57 11.5q-26 11.5 -44.5 32q-18.5 20.5 -28.5 48.5q-10 28 -10 61q0 78 38.5 116q38.5 38 101.5 38q30 0 56 -9.5q26 -9.5 45.5 -29q19.5 -19.5 30.5 -48q11 -28.5 11 -67.5zt0 0zM131 0h-81l560 700h81zM287 551q0 41 -18.5 67.5q-18.5 26.5 -60.5 26.5q-43 0 -58.5 -26.5q-15.5 -26.5 -15.5 -67.5q0 -19 3.5 -36q3.5 -17 12 -29.5q8.5 -12.5 23 -20q14.5 -7.5 35.5 -7.5q42 0 60.5 27.5t18.5 65.5z" />
<glyph unicode="&#38;" horiz-adv-x="707" d="M483 52q-85 -67 -204 -67q-48 0 -89.5 15.5q-41.5 15.5 -72.5 44q-31 28.5 -49 68q-18 39.5 -18 87.5q0 39 8 70q8 31 26.5 57q18.5 26 48 47q29.5 21 72.5 40q-26 35 -43.5 74.5q-17.5 39.5 -17.5 73.5q0 67 47 110q47 43 132 43q32 0 65.5 -8q33.5 -8 59.5 -17q31 -11 59 -24l-43 -79q-22 11 -45 18.5q-23 7.5 -44.5 12q-21.5 4.5 -40.5 6.5q-19 2 -32 2q-32 0 -47.5 -16.5q-15.5 -16.5 -15.5 -36.5q0 -31 21.5 -64q21.5 -33 47.5 -66l186 -236q23 46 35.5 106q12.5 60 12.5 133l90 0q0 -100 -20 -178.5q-20 -78.5 -58 -136.5l103 -131h-133l-33 43zM308 73q69 0 123 48l-173 225q-57 -22 -84.5 -63q-27.5 -41 -27.5 -83q0 -33 13.5 -56.5q13.5 -23.5 36 -39.5q22.5 -16 52 -23.5t60.5 -7.5z" />
<glyph unicode="&#39;" horiz-adv-x="288" d="M238 661q0 -14 -3.5 -24.5q-3.5 -10.5 -13.5 -22.5l-132 -168l-39 26l79 189q8 19 22.5 35q14.5 16 34.5 16q17 0 34.5 -11.5t17.5 -39.5z" />
<glyph unicode="&#40;" horiz-adv-x="382" d="M140 280q0 -72 15 -127q15 -55 43.5 -101q28.5 -46 69.5 -87q41 -41 94 -84l-38 -61q-142 88 -208 199.5q-66 111.5 -66 260.5q0 148 66 260q66 112 208 200l38 -61q-53 -44 -94 -84.5q-41 -40.5 -69.5 -86.5q-28.5 -46 -43.5 -101t-15 -127z" />
<glyph unicode="&#41;" horiz-adv-x="382" d="M242 280q0 72 -15 127q-15 55 -43.5 101q-28.5 46 -70 86.5q-41.5 40.5 -93.5 84.5l38 61q142 -88 208 -200q66 -112 66 -260q0 -149 -66 -260.5q-66 -111.5 -208 -199.5l-38 61q52 43 93.5 84q41.5 41 70 87q28.5 46 43.5 101t15 127z" />
<glyph unicode="&#42;" horiz-adv-x="424" d="M261 516l80 -102l-57 -42l-71 109l-73 -109l-57 42l79 102l-122 34l21 68l121 -43l-6 125h70l-5 -125l122 43l21 -68z" />
<glyph unicode="&#43;" horiz-adv-x="640" d="M355 259v-235h-70v235h-235v70h235v235h70v-235h235l0 -70z" />
<glyph unicode="&#44;" horiz-adv-x="228" d="M188 39q0 -22 -13.5 -51q-13.5 -29 -31.5 -57.5q-18 -28.5 -36 -53q-18 -24.5 -28 -36.5l-39 22l71 132q-24 2 -41 19.5q-17 17.5 -17 42.5q0 25 18.5 44q18.5 19 44.5 19q29 0 50.5 -21t21.5 -60z" />
<glyph unicode="&#45;" horiz-adv-x="290" d="M30 219v70h230l0 -70z" />
<glyph unicode="&#46;" horiz-adv-x="225" d="M50 57q0 26 18.5 44.5q18.5 18.5 44.5 18.5q26 0 44 -18.5q18 -18.5 18 -44.5q0 -26 -18 -44q-18 -18 -44 -18q-26 0 -44.5 18t-18.5 44z" />
<glyph unicode="&#47;" horiz-adv-x="497" d="M0 -160l425 882h72l-425 -882z" />
<glyph unicode="&#48;" horiz-adv-x="500" d="M476 350q0 -77 -12 -143.5q-12 -66.5 -38.5 -115.5q-26.5 -49 -69.5 -77.5q-43 -28.5 -106 -28.5q-63 0 -106 28.5q-43 28.5 -69.5 77.5q-26.5 49 -38.5 115.5q-12 66.5 -12 143.5q0 76 12 143q12 67 38.5 116q26.5 49 69.5 77.5q43 28.5 106 28.5q63 0 106 -28.5q43 -28.5 69.5 -77.5q26.5 -49 38.5 -116q12 -67 12 -143zt0 0zM369 350q0 72 -5.5 124q-5.5 52 -19 85.5q-13.5 33.5 -36.5 49.5q-23 16 -58 16q-35 0 -58 -16q-23 -16 -36.5 -49.5q-13.5 -33.5 -19 -85.5q-5.5 -52 -5.5 -124q0 -72 5.5 -124q5.5 -52 19 -85.5q13.5 -33.5 36.5 -49.5q23 -16 58 -16q35 0 58 16q23 16 36.5 49.5q13.5 33.5 19 85.5t5.5 124z" />
<glyph unicode="&#49;" horiz-adv-x="500" d="M116 0v90h100v485l-103 -54l-30 58l185 121h48v-610h100l0 -90z" />
<glyph unicode="&#50;" horiz-adv-x="500" d="M58 0v42l216 296q13 18 26.5 37.5q13.5 19.5 24.5 42q11 22.5 18 47q7 24.5 7 51.5q0 31 -8.5 51.5q-8.5 20.5 -24 33q-15.5 12.5 -37.5 17.5q-22 5 -48 5q-38 0 -68 -21q-30 -21 -62 -51l-59 68q45 45 96 70.5q51 25.5 118 25.5q52 0 89.5 -15q37.5 -15 62 -39.5q24.5 -24.5 36 -57q11.5 -32.5 11.5 -66.5q0 -34 -8.5 -65q-8.5 -31 -22 -60.5q-13.5 -29.5 -31 -56.5q-17.5 -27 -35.5 -52l-149 -204h238l0 -99z" />
<glyph unicode="&#51;" horiz-adv-x="500" d="M275 715q46 0 77.5 -15q31.5 -15 51 -37.5q19.5 -22.5 27.5 -49q8 -26.5 8 -50.5q0 -64 -36.5 -112q-36.5 -48 -99.5 -76q76 -10 118 -55.5q42 -45.5 42 -111.5q0 -45 -16 -85q-16 -40 -47 -71q-31 -31 -77 -49q-46 -18 -105 -18q-58 0 -102 18q-44 18 -80 42l45 79q35 -22 65 -35.5q30 -13.5 62 -13.5q24 0 49.5 6.5q25.5 6.5 47 22.5q21.5 16 35.5 41q14 25 14 63q0 25 -9.5 43.5q-9.5 18.5 -26 30q-16.5 11.5 -37.5 17q-21 5.5 -43 5.5q-14 0 -25 -2.5q-11 -2.5 -25 -8.5l-37 82q44 20 79.5 39q35.5 19 60 40q24.5 21 38 44q13.5 23 13.5 51q0 35 -20.5 55.5q-20.5 20.5 -60.5 20.5q-51 0 -85 -21.5q-34 -21.5 -60 -52.5l-59 68q19 19 40.5 36.5q21.5 17.5 48 30.5q26.5 13 58.5 21t71 8z" />
<glyph unicode="&#52;" horiz-adv-x="500" d="M485 178h-87v-178h-100v178h-284v50l337 486h47v-451h87zM298 263v240l-166 -240z" />
<glyph unicode="&#53;" horiz-adv-x="500" d="M221 -15q-51 0 -96.5 14.5q-45.5 14.5 -85.5 40.5l43 79q35 -21 66 -32.5q31 -11.5 63 -11.5q24 0 50.5 7q26.5 7 48.5 24q22 17 36.5 44.5q14.5 27.5 14.5 68.5q0 66 -36 98q-36 32 -99 32q-26 0 -46 -5q-20 -5 -37 -15l-49 44l62 327h298v-90h-225l-32 -176q12 2 25 3q13 1 27 1q42 0 80.5 -14.5q38.5 -14.5 68 -42.5q29.5 -28 46.5 -67.5q17 -39.5 17 -89.5q0 -37 -10.5 -79q-10.5 -42 -37.5 -77.5q-27 -35.5 -73.5 -59t-118.5 -23.5z" />
<glyph unicode="&#54;" horiz-adv-x="500" d="M462 220q0 -55 -16.5 -98.5q-16.5 -43.5 -44.5 -74q-28 -30.5 -66.5 -46.5q-38.5 -16 -81.5 -16q-64 0 -105.5 23q-41.5 23 -66 65q-24.5 42 -34 102q-9.5 60 -9.5 134q0 95 12.5 170q12.5 75 42 127.5q29.5 52.5 77.5 80.5q48 28 119 28q42 0 82.5 -12.5q40.5 -12.5 71.5 -38.5l-49 -76q-28 23 -56 30q-28 7 -52 7q-31 0 -56 -9.5q-25 -9.5 -44 -34q-19 -24.5 -30.5 -68.5q-11.5 -44 -15.5 -113q20 11 41 21q18 8 41 15q23 7 46 7q50 0 86.5 -17.5q36.5 -17.5 60.5 -48q24 -30.5 35.5 -71q11.5 -40.5 11.5 -86.5zt0 0zM370 219q0 69 -34 105q-34 36 -85 36q-11 0 -25.5 -4q-14.5 -4 -30 -10q-15.5 -6 -30.5 -14q-15 -8 -26 -16l0 -32q0 -44 3.5 -82q3.5 -38 15.5 -66.5q12 -28.5 34 -44.5q22 -16 60 -16q54 0 86 38.5t32 105.5z" />
<glyph unicode="&#55;" horiz-adv-x="500" d="M90 0l249 610h-298v90h418v-40l-270 -660z" />
<glyph unicode="&#56;" horiz-adv-x="500" d="M250 -15q-42 0 -81.5 12.5q-39.5 12.5 -70 38.5q-30.5 26 -49 65.5q-18.5 39.5 -18.5 93.5q0 62 29 104.5q29 42.5 74 68.5q-41 20 -62.5 62q-21.5 42 -21.5 87q0 93 53 145.5q53 52.5 147 52.5q94 0 147 -52.5q53 -52.5 53 -145.5q0 -45 -21.5 -87q-21.5 -42 -62.5 -62q45 -26 74 -68.5q29 -42.5 29 -104.5q0 -54 -18.5 -93.5q-18.5 -39.5 -49 -65.5q-30.5 -26 -70 -38.5q-39.5 -12.5 -81.5 -12.5zt0 0zM250 317q-24 0 -46 -6q-22 -6 -38 -20q-16 -14 -25.5 -37.5q-9.5 -23.5 -9.5 -58.5q0 -35 9.5 -58q9.5 -23 25.5 -37q16 -14 38 -19.5q22 -5.5 46 -5.5q24 0 46 5.5q22 5.5 38 19.5q16 14 25.5 37q9.5 23 9.5 58q0 35 -9.5 58.5q-9.5 23.5 -25.5 37.5q-16 14 -38 20q-22 6 -46 6zt0 0zM250 625q-45 0 -72.5 -24q-27.5 -24 -27.5 -83q0 -56 29.5 -83.5q29.5 -27.5 70.5 -27.5q41 0 70.5 27.5q29.5 27.5 29.5 83.5q0 59 -27.5 83t-72.5 24z" />
<glyph unicode="&#57;" horiz-adv-x="500" d="M37 480q0 55 15.5 98.5q15.5 43.5 43.5 74q28 30.5 65 46.5q37 16 81 16q66 0 108.5 -24.5q42.5 -24.5 67.5 -69.5q25 -45 34.5 -108.5q9.5 -63.5 9.5 -141.5q0 -90 -12.5 -162q-12.5 -72 -42 -121.5q-29.5 -49.5 -76.5 -76q-47 -26.5 -116 -26.5q-42 0 -82.5 12.5q-40.5 12.5 -72.5 38.5l48 76q29 -23 57 -30q28 -7 52 -7q31 0 56 9.5q25 9.5 44 34q19 24.5 30 68.5q11 44 14 113q-19 -12 -40 -22q-18 -8 -41 -14.5q-23 -6.5 -46 -6.5q-50 0 -87 17.5q-37 17.5 -61.5 48q-24.5 30.5 -36.5 71q-12 40.5 -12 86.5zt0 0zM129 481q0 -34 9.5 -60.5q9.5 -26.5 26 -44.5q16.5 -18 38.5 -27q22 -9 47 -9q10 0 24.5 4q14.5 4 30 10q15.5 6 30.5 14q15 8 26 16q0 49 -3 93q-3 44 -14.5 77q-11.5 33 -35 52q-23.5 19 -64.5 19q-54 0 -84.5 -38.5t-30.5 -105.5z" />
<glyph unicode="&#58;" horiz-adv-x="225" d="M50 337q0 26 18.5 44.5q18.5 18.5 44.5 18.5q26 0 44 -18.5q18 -18.5 18 -44.5q0 -26 -18 -44q-18 -18 -44 -18q-26 0 -44.5 18q-18.5 18 -18.5 44zt0 0zM50 57q0 26 18.5 44.5q18.5 18.5 44.5 18.5q26 0 44 -18.5q18 -18.5 18 -44.5q0 -26 -18 -44q-18 -18 -44 -18q-26 0 -44.5 18t-18.5 44z" />
<glyph unicode="&#59;" horiz-adv-x="248" d="M63 337q0 26 18.5 44.5q18.5 18.5 44.5 18.5q26 0 44 -18.5q18 -18.5 18 -44.5q0 -26 -18 -44q-18 -18 -44 -18q-26 0 -44.5 18q-18.5 18 -18.5 44zt0 0zM198 39q0 -22 -13.5 -51q-13.5 -29 -31.5 -57.5q-18 -28.5 -36 -53q-18 -24.5 -28 -36.5l-39 22l71 132q-24 2 -41 19.5q-17 17.5 -17 42.5q0 25 18.5 44q18.5 19 44.5 19q29 0 50.5 -21t21.5 -60z" />
<glyph unicode="&#60;" horiz-adv-x="519" d="M469 549v-81l-298 -172l298 -172v-81l-439 253z" />
<glyph unicode="&#61;" horiz-adv-x="640" d="M50 163v70h540v-70zM50 335v70h540l0 -70z" />
<glyph unicode="&#62;" horiz-adv-x="519" d="M50 43v81l298 172l-298 172v81l439 -253z" />
<glyph unicode="&#63;" horiz-adv-x="439" d="M389 538q0 -42 -14 -70q-14 -28 -35.5 -48.5q-21.5 -20.5 -46.5 -37q-25 -16.5 -46.5 -34.5q-21.5 -18 -35.5 -41.5q-14 -23.5 -14 -58.5q0 -25 7 -53l-60 0q-13 23 -18.5 43q-5.5 20 -5.5 40q0 34 13.5 59.5q13.5 25.5 33 46q19.5 20.5 43 37q23.5 16.5 43 34q19.5 17.5 33 36.5q13.5 19 13.5 44q0 22 -9 36.5q-9 14.5 -22 23q-13 8.5 -29 12q-16 3.5 -29 3.5q-32 0 -62.5 -7.5q-30.5 -7.5 -65.5 -23.5l-32 84q42 18 78.5 27.5q36.5 9.5 79.5 9.5q60 0 95.5 -18.5q35.5 -18.5 54.5 -44.5q19 -26 25 -53.5q6 -27.5 6 -45.5zt0 0zM111 57q0 26 18.5 44.5q18.5 18.5 44.5 18.5q26 0 44 -18.5q18 -18.5 18 -44.5q0 -26 -18 -44q-18 -18 -44 -18q-26 0 -44.5 18t-18.5 44z" />
<glyph unicode="&#64;" horiz-adv-x="824" d="M488 326q-49 0 -88.5 -21.5q-39.5 -21.5 -67 -52q-27.5 -30.5 -42.5 -64.5q-15 -34 -15 -58q0 -38 10 -47.5q10 -9.5 27 -9.5q26 0 56 25.5q30 25.5 56.5 63.5q26.5 38 44.5 82q18 44 19 82zt0 0zM779 282q0 -80 -27.5 -134q-27.5 -54 -70.5 -87q-43 -33 -94 -47q-51 -14 -98 -14l0 158q-17 -28 -37 -57q-20 -29 -44.5 -52.5q-24.5 -23.5 -53 -38.5q-28.5 -15 -61.5 -15q-18 0 -36 6.5q-18 6.5 -31.5 22q-13.5 15.5 -22 41.5q-8.5 26 -8.5 65q0 51 25.5 100.5q25.5 49.5 73.5 88.5q48 39 117 63.5q69 24.5 156 24.5l0 -323q25 4 50 22.5q25 18.5 45 45.5q20 27 33 60.5q13 33.5 13 67.5q0 51 -20 86q-20 35 -53 56.5q-33 21.5 -76 31q-43 9.5 -89 9.5q-64 0 -127.5 -19q-63.5 -19 -114 -58.5q-50.5 -39.5 -82 -100q-31.5 -60.5 -31.5 -144.5q0 -73 21.5 -122q21.5 -49 56 -78.5q34.5 -29.5 78.5 -42q44 -12.5 88 -12.5q28 0 61 4q33 4 67.5 12q34.5 8 67.5 20q33 12 60 28l22 -67q-33 -17 -69 -29.5q-36 -12.5 -72 -20.5q-36 -8 -70.5 -12.5q-34.5 -4.5 -63.5 -4.5q-77 0 -136 23q-59 23 -99.5 65.5q-40.5 42.5 -61 102.5q-20.5 60 -20.5 134q0 88 36 160.5q36 72.5 95.5 124q59.5 51.5 136 79.5q76.5 28 157.5 28q72 0 129.5 -17.5q57.5 -17.5 97 -50q39.5 -32.5 61 -79t21.5 -104.5z" />
<glyph unicode="&#65;" horiz-adv-x="633" d="M377 700l241 -700h-105l-65 188h-272l-65 -188h-96l241 700zM207 278h210l-104 305z" />
<glyph unicode="&#66;" horiz-adv-x="555" d="M515 197q0 -53 -20 -90q-20 -37 -51 -61q-31 -24 -69.5 -35q-38.5 -11 -74.5 -11h-210v700h210q33 0 67 -8.5q34 -8.5 62 -28.5q28 -20 46 -52.5q18 -32.5 18 -79.5q0 -59 -30 -102.5q-30 -43.5 -90 -62.5q63 -14 102.5 -55.5q39.5 -41.5 39.5 -113.5zt0 0zM415 203q0 60 -36.5 87q-36.5 27 -97.5 27h-91v-227h91q61 0 97.5 26.5q36.5 26.5 36.5 86.5zt0 0zM392 509q0 54 -29.5 77.5q-29.5 23.5 -89.5 23.5h-83v-203h83q60 0 89.5 24t29.5 78z" />
<glyph unicode="&#67;" horiz-adv-x="661" d="M391 715q65 0 121.5 -11.5q56.5 -11.5 101.5 -31.5l-35 -87q-47 18 -90 29q-43 11 -98 11q-52 0 -96 -19q-44 -19 -76.5 -54.5q-32.5 -35.5 -50.5 -86.5q-18 -51 -18 -115q0 -68 18 -119.5q18 -51.5 50.5 -86q32.5 -34.5 76.5 -52q44 -17.5 96 -17.5q57 0 109 25q52 25 98 56l43 -77q-36 -27 -76 -47q-35 -18 -79.5 -32.5q-44.5 -14.5 -94.5 -14.5q-87 0 -153 26.5q-66 26.5 -110 74.5q-44 48 -66 115.5q-22 67.5 -22 148.5q0 78 22 144.5q22 66.5 66 115.5q44 49 110 77t153 28z" />
<glyph unicode="&#68;" horiz-adv-x="666" d="M303 700q90 0 151.5 -31q61.5 -31 99.5 -81q38 -50 55 -112.5q17 -62.5 17 -125.5q0 -63 -17 -125.5q-17 -62.5 -55 -112.5q-38 -50 -99.5 -81q-61.5 -31 -151.5 -31h-213v700zM288 90q62 0 105.5 17.5q43.5 17.5 70.5 50.5q27 33 39.5 81.5q12.5 48.5 12.5 110.5q0 62 -12.5 110.5q-12.5 48.5 -39.5 81.5q-27 33 -70.5 50.5q-43.5 17.5 -105.5 17.5h-98l0 -520z" />
<glyph unicode="&#69;" horiz-adv-x="499" d="M424 317h-234v-227h269v-90h-369v700h358v-90h-258v-203l234 0z" />
<glyph unicode="&#70;" horiz-adv-x="459" d="M190 610v-206h234v-90h-234v-314h-100v700h359l0 -90z" />
<glyph unicode="&#71;" horiz-adv-x="671" d="M391 715q65 0 121.5 -11.5q56.5 -11.5 101.5 -31.5l-35 -87q-47 18 -90 29q-43 11 -98 11q-52 0 -96 -19q-44 -19 -76.5 -54.5q-32.5 -35.5 -50.5 -86.5q-18 -51 -18 -115q0 -68 18 -119.5q18 -51.5 50.5 -86q32.5 -34.5 76.5 -52q44 -17.5 96 -17.5q39 0 77 12.5q38 12.5 73 32.5l0 217h100v-258q-36 -27 -76 -47q-35 -18 -79.5 -32.5q-44.5 -14.5 -94.5 -14.5q-87 0 -153 26.5q-66 26.5 -110 74.5q-44 48 -66 115.5q-22 67.5 -22 148.5q0 78 22 144.5q22 66.5 66 115.5q44 49 110 77t153 28z" />
<glyph unicode="&#72;" horiz-adv-x="730" d="M540 0v317h-350v-317h-100v700h100v-293h350v293h100l0 -700z" />
<glyph unicode="&#73;" horiz-adv-x="280" d="M90 0v700h100l0 -700z" />
<glyph unicode="&#74;" horiz-adv-x="280" d="M90 700h100v-651q0 -121 -58 -182.5q-58 -61.5 -187 -61.5l0 90q27 0 53 4q26 4 46.5 19.5q20.5 15.5 33 46.5q12.5 31 12.5 84z" />
<glyph unicode="&#75;" horiz-adv-x="623" d="M468 0l-201 317h-77v-317h-100v700h100v-293h71l207 293h120l-237 -334l243 -366z" />
<glyph unicode="&#76;" horiz-adv-x="512" d="M492 0h-402v700h100v-610l302 0z" />
<glyph unicode="&#77;" horiz-adv-x="914" d="M733 0l-23 590l-217 -590h-83l-209 590l-30 -590h-91l37 700h151l188 -536l204 536h144l30 -700z" />
<glyph unicode="&#78;" horiz-adv-x="750" d="M660 0h-70l-410 510v-510h-90v700h70l410 -511v511l90 0z" />
<glyph unicode="&#79;" horiz-adv-x="754" d="M377 -15q-81 0 -143.5 29.5q-62.5 29.5 -105.5 79.5q-43 50 -65.5 116q-22.5 66 -22.5 140q0 74 22.5 140q22.5 66 65.5 116q43 50 105.5 79.5q62.5 29.5 143.5 29.5q81 0 143.5 -29.5q62.5 -29.5 105.5 -79.5q43 -50 65.5 -116q22.5 -66 22.5 -140q0 -74 -22.5 -140q-22.5 -66 -65.5 -116q-43 -50 -105.5 -79.5q-62.5 -29.5 -143.5 -29.5zt0 0zM377 75q51 0 94.5 18.5q43.5 18.5 75 54q31.5 35.5 49.5 86.5q18 51 18 116q0 65 -18 116q-18 51 -49.5 86.5q-31.5 35.5 -75 54q-43.5 18.5 -94.5 18.5q-51 0 -94.5 -18.5q-43.5 -18.5 -75 -54q-31.5 -35.5 -49.5 -86.5q-18 -51 -18 -116q0 -65 18 -116q18 -51 49.5 -86.5q31.5 -35.5 75 -54t94.5 -18.5z" />
<glyph unicode="&#80;" horiz-adv-x="540" d="M190 364h69q72 0 108.5 31.5q36.5 31.5 36.5 91.5q0 60 -36.5 91.5q-36.5 31.5 -108.5 31.5h-69zM190 0h-100v700h187q44 0 86 -12.5q42 -12.5 74.5 -39q32.5 -26.5 52.5 -66.5q20 -40 20 -95q0 -55 -20 -95q-20 -40 -52.5 -66.5q-32.5 -26.5 -74.5 -39q-42 -12.5 -86 -12.5l-87 0z" />
<glyph unicode="&#81;" horiz-adv-x="773" d="M50 350q0 78 22.5 144.5q22.5 66.5 65.5 115.5q43 49 105.5 77q62.5 28 143.5 28q81 0 143.5 -28q62.5 -28 105.5 -77q43 -49 65.5 -115.5q22.5 -66.5 22.5 -144.5q0 -60 -13.5 -114q-13.5 -54 -39.5 -98q-26 -44 -64.5 -77.5q-38.5 -33.5 -88.5 -52.5l263 -100l-35 -84l-455 173q-58 15 -103 47.5q-45 32.5 -75.5 78.5q-30.5 46 -46.5 104q-16 58 -16 123zt0 0zM624 350q0 69 -18 120.5q-18 51.5 -49.5 86q-31.5 34.5 -75 51.5q-43.5 17 -94.5 17q-51 0 -94.5 -17q-43.5 -17 -75 -51.5q-31.5 -34.5 -49.5 -86q-18 -51.5 -18 -120.5q0 -69 18 -120.5q18 -51.5 49.5 -86q31.5 -34.5 75 -51.5q43.5 -17 94.5 -17q51 0 94.5 17q43.5 17 75 51.5q31.5 34.5 49.5 86t18 120.5z" />
<glyph unicode="&#82;" horiz-adv-x="590" d="M180 0h-100v700h197q44 0 86 -12.5q42 -12.5 74.5 -39q32.5 -26.5 52.5 -66.5q20 -40 20 -95q0 -77 -37 -124.5q-37 -47.5 -92 -69.5l169 -293h-115l-159 274h-96zM180 364h79q72 0 108.5 31.5q36.5 31.5 36.5 91.5q0 60 -36.5 91.5q-36.5 31.5 -108.5 31.5l-79 0z" />
<glyph unicode="&#83;" horiz-adv-x="540" d="M510 198q0 -42 -17 -81q-17 -39 -50 -68q-33 -29 -80.5 -46.5q-47.5 -17.5 -108.5 -17.5q-33 0 -66.5 9q-33.5 9 -63 22.5q-29.5 13.5 -54 28q-24.5 14.5 -40.5 26.5l48 77q13 -10 34.5 -22.5q21.5 -12.5 47.5 -24q26 -11.5 54 -19q28 -7.5 55 -7.5q28 0 53 7q25 7 44 20.5q19 13.5 29.5 34q10.5 20.5 10.5 47.5q0 38 -25.5 62.5q-25.5 24.5 -63.5 44q-38 19.5 -83 37q-45 17.5 -83 42q-38 24.5 -63.5 59.5q-25.5 35 -25.5 89q0 40 13.5 76q13.5 36 43 63q29.5 27 76 42.5q46.5 15.5 112.5 15.5q23 0 47.5 -3.5q24.5 -3.5 48.5 -9.5q24 -6 45.5 -14q21.5 -8 38.5 -17l-39 -82q-12 6 -31 12q-19 6 -41 11.5q-22 5.5 -45.5 9q-23.5 3.5 -45.5 3.5q-24 0 -46 -5q-22 -5 -39 -16q-17 -11 -27 -29q-10 -18 -10 -44q0 -33 25.5 -54q25.5 -21 64.5 -39q39 -18 83.5 -36.5q44.5 -18.5 83.5 -44.5q39 -26 64.5 -64t25.5 -95z" />
<glyph unicode="&#84;" horiz-adv-x="575" d="M560 610h-223v-610h-99v610h-223v90l545 0z" />
<glyph unicode="&#85;" horiz-adv-x="715" d="M358 75q46 0 78 12.5q32 12.5 52 34.5q20 22 28.5 51.5q8.5 29.5 8.5 62.5v464h100v-464q0 -62 -19 -109q-19 -47 -54 -78.5q-35 -31.5 -84 -47.5q-49 -16 -110 -16q-61 0 -110.5 16q-49.5 16 -84.5 47.5q-35 31.5 -54 78.5q-19 47 -19 109v464h100v-464q0 -33 9 -62.5q9 -29.5 28.5 -51.5q19.5 -22 51.5 -34.5t79 -12.5z" />
<glyph unicode="&#86;" horiz-adv-x="670" d="M127 700l210 -523l215 523h103l-287 -700h-66l-287 700z" />
<glyph unicode="&#87;" horiz-adv-x="922" d="M666 215l147 485h94l-212 -700h-60l-174 498l-174 -498h-60l-212 700h105l146 -487l169 487l60 0z" />
<glyph unicode="&#88;" horiz-adv-x="608" d="M360 355l223 -355h-119l-164 260l-163 -260h-106l216 345l-222 355h118l164 -261l164 261l106 0z" />
<glyph unicode="&#89;" horiz-adv-x="598" d="M348 0h-99v255l-234 445h111l177 -340l179 340h101l-235 -447z" />
<glyph unicode="&#90;" horiz-adv-x="597" d="M40 0v35l360 575h-334v90h491v-36l-360 -574h352l0 -90z" />
<glyph unicode="&#91;" horiz-adv-x="251" d="M50 -180v920h181v-70h-101v-780h101l0 -70z" />
<glyph unicode="&#92;" horiz-adv-x="497" d="M72 722l425 -882h-72l-425 882z" />
<glyph unicode="&#93;" horiz-adv-x="251" d="M201 740v-920h-181v70h101v780h-101l0 70z" />
<glyph unicode="&#94;" horiz-adv-x="454" d="M347 549l-120 125l-120 -125h-82l183 191h38l183 -191z" />
<glyph unicode="&#95;" horiz-adv-x="532" d="M0 -96v70h532l0 -70z" />
<glyph unicode="&#96;" horiz-adv-x="296" d="M50 706h98l98 -162l-65 0z" />
<glyph unicode="&#97;" horiz-adv-x="495" d="M335 70q-38 -36 -79.5 -58.5q-41.5 -22.5 -85.5 -22.5q-29 0 -53.5 7.5q-24.5 7.5 -42.5 23q-18 15.5 -28.5 39.5q-10.5 24 -10.5 56q0 48 21.5 81q21.5 33 60.5 53q39 20 94.5 30.5q55.5 10.5 123.5 13.5q0 43 -8 66.5q-8 23.5 -21.5 34q-13.5 10.5 -31.5 12.5q-18 2 -39 2q-17 0 -37 -3q-20 -3 -40.5 -8.5q-20.5 -5.5 -40 -12q-19.5 -6.5 -35.5 -12.5l-26 77q16 6 39 13q23 7 50 13q27 6 55 9.5q28 3.5 55 3.5q33 0 64 -8.5q31 -8.5 54.5 -31q23.5 -22.5 37.5 -61.5q14 -39 14 -100v-287h-90zM193 66q16 0 34 7.5q18 7.5 37 19q19 11.5 37 26.5q18 15 34 30l0 74q-44 -2 -82.5 -7.5q-38.5 -5.5 -67 -17q-28.5 -11.5 -44.5 -30q-16 -18.5 -16 -46.5q0 -25 15 -40.5t53 -15.5z" />
<glyph unicode="&#98;" horiz-adv-x="563" d="M268 -15q-49 0 -99.5 18q-50.5 18 -98.5 50l0 647h90v-266q25 19 63 36.5q38 17.5 86 17.5q43 0 81.5 -17q38.5 -17 68 -48q29.5 -31 47 -74.5q17.5 -43.5 17.5 -96.5q0 -68 -21 -118.5q-21 -50.5 -56.5 -83.5q-35.5 -33 -81.5 -49q-46 -16 -96 -16zt0 0zM258 65q24 0 54.5 4q30.5 4 56.5 22q26 18 44 55q18 37 18 103q0 46 -16.5 76.5q-16.5 30.5 -40 48.5q-23.5 18 -48 25.5q-24.5 7.5 -40.5 7.5q-38 0 -69 -15.5q-31 -15.5 -57 -38.5l0 -257q17 -13 45.5 -22t52.5 -9z" />
<glyph unicode="&#99;" horiz-adv-x="490" d="M465 59q-13 -9 -32.5 -21.5q-19.5 -12.5 -44 -24.5q-24.5 -12 -53.5 -20q-29 -8 -60 -8q-45 0 -87.5 13.5q-42.5 13.5 -75.5 43.5q-33 30 -52.5 78q-19.5 48 -19.5 116q0 66 22 113.5q22 47.5 57 78q35 30.5 78.5 45.5q43.5 15 86.5 15q38 0 79 -6q41 -6 82 -17l-21 -77q-37 10 -69 15.5q-32 5.5 -61 5.5q-74 0 -115.5 -40.5q-41.5 -40.5 -41.5 -132.5q0 -87 42 -127.5q42 -40.5 114 -40.5q32 0 66 18.5q34 18.5 66 38.5z" />
<glyph unicode="&#100;" horiz-adv-x="571" d="M410 0v67q-13 -14 -30 -28.5q-17 -14.5 -37.5 -26.5q-20.5 -12 -44 -19.5q-23.5 -7.5 -48.5 -7.5q-39 0 -76.5 14q-37.5 14 -67.5 44q-30 30 -48 78q-18 48 -18 116q0 66 21.5 113q21.5 47 55 78q33.5 31 74 45.5q40.5 14.5 78.5 14.5q42 0 77 -11q35 -11 64 -27l0 250h91v-700zM410 365q-29 20 -57.5 31.5q-28.5 11.5 -69.5 11.5q-22 0 -48 -7q-26 -7 -49 -25.5q-23 -18.5 -38.5 -52q-15.5 -33.5 -15.5 -86.5q0 -47 11 -79.5q11 -32.5 29.5 -52q18.5 -19.5 44 -28q25.5 -8.5 54.5 -8.5q38 0 73.5 22.5q35.5 22.5 65.5 57.5z" />
<glyph unicode="&#101;" horiz-adv-x="492" d="M40 226q0 65 19 114q19 49 50 82q31 33 70 49.5q39 16.5 78 16.5q99 0 151 -62q52 -62 52 -193l-328 0q1 -48 12.5 -80q11.5 -32 32 -50.5q20.5 -18.5 49.5 -26.5q29 -8 64 -8q16 0 34.5 5.5q18.5 5.5 37 14q18.5 8.5 35 18.5q16.5 10 28.5 19l37 -65q-15 -11 -34.5 -24q-19.5 -13 -43 -24.5q-23.5 -11.5 -51 -19q-27.5 -7.5 -58.5 -7.5q-45 0 -87.5 14.5q-42.5 14.5 -75.5 44q-33 29.5 -52.5 75q-19.5 45.5 -19.5 107.5zt0 0zM260 408q-43 0 -72.5 -24.5q-29.5 -24.5 -48.5 -85.5l234 0q-2 25 -7.5 45q-5.5 20 -18.5 34.5q-13 14.5 -34 22.5t-53 8z" />
<glyph unicode="&#102;" horiz-adv-x="301" d="M80 0v392h-60v80h60v94q0 44 11.5 73q11.5 29 30 46q18.5 17 41.5 23.5q23 6.5 46 6.5q38 0 72.5 -6.5q34.5 -6.5 69.5 -16.5l-25 -74q-36 13 -62.5 19.5q-26.5 6.5 -48.5 6.5q-21 0 -32.5 -11q-11.5 -11 -11.5 -40v-121h117v-80h-117l0 -392z" />
<glyph unicode="&#103;" horiz-adv-x="505" d="M409 403q14 -18 23 -38.5q9 -20.5 9 -55.5q0 -54 -21.5 -89q-21.5 -35 -57.5 -57.5q-36 -22.5 -82.5 -36.5q-46.5 -14 -96.5 -24l0 -6q73 -3 125 -15q52 -12 85 -31.5q33 -19.5 48.5 -44.5q15.5 -25 15.5 -52q0 -36 -18.5 -66q-18.5 -30 -50.5 -51.5q-32 -21.5 -75 -33.5q-43 -12 -91 -12q-57 0 -94.5 11q-37.5 11 -60.5 29q-23 18 -32.5 40.5q-9.5 22.5 -9.5 45.5q0 70 125 129l-93 13v61q29 8 57.5 16q28.5 8 57.5 18q-64 23 -93 58.5q-29 35.5 -29 97.5q0 41 14.5 74q14.5 33 40.5 56.5q26 23.5 61.5 36q35.5 12.5 78.5 12.5q24 0 53.5 -7q29.5 -7 48.5 -18l133 50v-83zM140 309q0 -49 26.5 -80q26.5 -31 78.5 -31q52 0 79 31q27 31 27 80q0 43 -27 75q-27 32 -79 32q-52 0 -78.5 -32q-26.5 -32 -26.5 -75zt0 0zM222 -140q72 0 110 23.5q38 23.5 38 61.5q0 26 -28 47.5q-28 21.5 -97 31.5q-44 -15 -71 -30.5q-27 -15.5 -41.5 -29.5q-14.5 -14 -19.5 -26q-5 -12 -5 -20q0 -26 29 -42t85 -16z" />
<glyph unicode="&#104;" horiz-adv-x="563" d="M160 414q12 12 28 24.5q16 12.5 35.5 23q19.5 10.5 42.5 17.5q23 7 50 7q35 0 68.5 -12q33.5 -12 60 -38q26.5 -26 42.5 -66q16 -40 16 -96v-274h-91v274q0 37 -9 62q-9 25 -25 40.5q-16 15.5 -36.5 22q-20.5 6.5 -43.5 6.5q-16 0 -35.5 -5q-19.5 -5 -38.5 -13.5q-19 -8.5 -36 -20q-17 -11.5 -28 -24.5l0 -342h-90v700l90 0z" />
<glyph unicode="&#105;" horiz-adv-x="230" d="M160 0h-90v472h90zM114 562q-23 0 -40.5 17q-17.5 17 -17.5 40q0 25 17.5 42.5q17.5 17.5 40.5 17.5q25 0 42 -17.5q17 -17.5 17 -42.5q0 -23 -17 -40t-42 -17z" />
<glyph unicode="&#106;" horiz-adv-x="230" d="M160 15q0 -62 -18.5 -102.5q-18.5 -40.5 -48 -64.5q-29.5 -24 -65 -33.5q-35.5 -9.5 -69.5 -9.5l0 80q31 0 52 10.5q21 10.5 34 28.5q13 18 19 41.5q6 23.5 6 49.5v457h90zM114 562q-23 0 -40.5 17q-17.5 17 -17.5 40q0 25 17.5 42.5q17.5 17.5 40.5 17.5q25 0 42 -17.5q17 -17.5 17 -42.5q0 -23 -17 -40t-42 -17z" />
<glyph unicode="&#107;" horiz-adv-x="485" d="M283 278l181 -278h-107l-139 211l-58 -61v-150h-90v700h90v-446l203 218l107 0z" />
<glyph unicode="&#108;" horiz-adv-x="230" d="M160 0h-90v700l90 0z" />
<glyph unicode="&#109;" horiz-adv-x="823" d="M462 0h-91v285q0 38 -8 61.5q-8 23.5 -22 36q-14 12.5 -32 17q-18 4.5 -37 4.5q-34 0 -65 -21q-31 -21 -47 -51l0 -332h-90v472h90v-60q7 10 19.5 23q12.5 13 29.5 25q17 12 38 20q21 8 45 8q44 0 80.5 -21.5q36.5 -21.5 60.5 -56.5q9 8 23.5 21.5q14.5 13.5 34.5 26q20 12.5 46 21.5q26 9 56 9q75 0 122.5 -52.5q47.5 -52.5 47.5 -150.5v-285h-91v285q0 38 -8 61.5q-8 23.5 -22 36q-14 12.5 -32 17q-18 4.5 -37 4.5q-14 0 -30.5 -6.5q-16.5 -6.5 -32 -16q-15.5 -9.5 -28.5 -21.5q-13 -12 -20 -23z" />
<glyph unicode="&#110;" horiz-adv-x="563" d="M160 414q12 12 28 24.5q16 12.5 35.5 23q19.5 10.5 42.5 17.5q23 7 50 7q35 0 68.5 -12q33.5 -12 60 -38q26.5 -26 42.5 -66q16 -40 16 -96v-274h-91v274q0 37 -9 62q-9 25 -25 40.5q-16 15.5 -36.5 22q-20.5 6.5 -43.5 6.5q-16 0 -35.5 -5q-19.5 -5 -38.5 -13.5q-19 -8.5 -36 -20q-17 -11.5 -28 -24.5l0 -342h-90v472l90 0z" />
<glyph unicode="&#111;" horiz-adv-x="560" d="M280 -15q-50 0 -94 15.5q-44 15.5 -76.5 47q-32.5 31.5 -51 79q-18.5 47.5 -18.5 110.5q0 63 18.5 110q18.5 47 51 78.5q32.5 31.5 76.5 47q44 15.5 94 15.5q50 0 94 -16q44 -16 76.5 -47.5q32.5 -31.5 51 -78.5q18.5 -47 18.5 -110q0 -63 -18.5 -110q-18.5 -47 -51 -78.5q-32.5 -31.5 -76.5 -47q-44 -15.5 -94 -15.5zt0 0zM280 60q69 0 109.5 45.5q40.5 45.5 40.5 130.5q0 85 -40.5 131q-40.5 46 -109.5 46q-69 0 -109.5 -45.5q-40.5 -45.5 -40.5 -130.5q0 -85 40.5 -131t109.5 -46z" />
<glyph unicode="&#112;" horiz-adv-x="559" d="M427 245q0 54 -15.5 85.5q-15.5 31.5 -38 48q-22.5 16.5 -47.5 21q-25 4.5 -43 4.5q-41 0 -71 -20q-30 -20 -52 -43l0 -243q10 -10 24 -17.5q14 -7.5 30 -12q16 -4.5 32 -7q16 -2.5 30 -2.5q17 0 42.5 4q25.5 4 49.5 22.5q24 18.5 41.5 56q17.5 37.5 17.5 103.5zt0 0zM70 472h90v-61q7 9 23 22.5q16 13.5 37 25.5q21 12 46.5 20.5q25.5 8.5 53.5 8.5q35 0 70.5 -13.5q35.5 -13.5 64 -43q28.5 -29.5 46.5 -75.5q18 -46 18 -111q0 -68 -20.5 -117.5q-20.5 -49.5 -53 -81q-32.5 -31.5 -71 -46.5q-38.5 -15 -74.5 -15q-33 0 -72.5 9q-39.5 9 -67.5 26l0 -215l-90 0z" />
<glyph unicode="&#113;" horiz-adv-x="545" d="M385 393q-12 8 -34 11.5q-22 3.5 -35 3.5q-32 0 -65 -7q-33 -7 -59.5 -26q-26.5 -19 -43 -53q-16.5 -34 -16.5 -87q0 -58 16 -92.5q16 -34.5 37.5 -52.5q21.5 -18 43.5 -23.5q22 -5.5 35 -5.5q43 0 71 14q28 14 50 35zM385 34q-25 -23 -58 -36q-33 -13 -71 -13q-41 0 -79.5 16q-38.5 16 -69 47.5q-30.5 31.5 -49 78q-18.5 46.5 -18.5 108.5q0 65 24.5 112.5q24.5 47.5 63 79q38.5 31.5 86 46.5q47.5 15 94.5 15q39 0 77 -16l90 47v-714l-90 0z" />
<glyph unicode="&#114;" horiz-adv-x="365" d="M160 324q10 37 25 64q15 27 36 46.5q21 19.5 49 32q28 12.5 63 21.5l22 -77q-104 -32 -149.5 -89.5q-45.5 -57.5 -45.5 -146.5v-175h-90v472l90 0z" />
<glyph unicode="&#115;" horiz-adv-x="446" d="M406 142q0 -50 -20 -81q-20 -31 -48.5 -48q-28.5 -17 -60 -22.5q-31.5 -5.5 -54.5 -5.5q-52 0 -98.5 18.5q-46.5 18.5 -84.5 47.5v70q76 -26 114.5 -41q38.5 -15 70.5 -15q50 0 71.5 15.5q21.5 15.5 21.5 45.5q0 28 -19 43q-19 15 -47 25q-28 10 -61.5 19q-33.5 9 -61.5 25q-28 16 -47 42q-19 26 -19 70q0 62 43.5 100.5q43.5 38.5 122.5 38.5q49 0 86 -8.5q37 -8.5 79 -24.5l-28 -75q-48 18 -83 24q-35 6 -68 6q-34 0 -50 -17.5q-16 -17.5 -16 -39.5q0 -25 19 -38.5q19 -13.5 47.5 -23.5q28.5 -10 62 -19q33.5 -9 62 -24.5q28.5 -15.5 47.5 -40.5t19 -66z" />
<glyph unicode="&#116;" horiz-adv-x="361" d="M341 37q-34 -17 -67.5 -29.5q-33.5 -12.5 -72.5 -12.5q-31 0 -50.5 12.5q-19.5 12.5 -31 32q-11.5 19.5 -15.5 44q-4 24.5 -4 49.5v259h-80v10l165 189h6v-119h147v-80h-147v-255q0 -32 11 -43.5q11 -11.5 28 -11.5q18 0 40 8.5q22 8.5 42 17.5z" />
<glyph unicode="&#117;" horiz-adv-x="539" d="M469 0h-90v76q-13 -15 -30 -30.5q-17 -15.5 -37.5 -28q-20.5 -12.5 -42.5 -20.5q-22 -8 -46 -8q-38 0 -68 10.5q-30 10.5 -51 35q-21 24.5 -32.5 64q-11.5 39.5 -11.5 97.5v276h90v-276q0 -39 8.5 -62q8.5 -23 22.5 -35.5q14 -12.5 33.5 -16q19.5 -3.5 42.5 -3.5q35 0 65.5 21.5q30.5 21.5 56.5 53.5l0 318l90 0z" />
<glyph unicode="&#118;" horiz-adv-x="509" d="M117 472l145 -351l149 351h88l-207 -472h-73l-204 472z" />
<glyph unicode="&#119;" horiz-adv-x="717" d="M110 472l119 -318l100 318h69l115 -315l96 315h93l-156 -472h-68l-116 307l-104 -307h-69l-174 472z" />
<glyph unicode="&#120;" horiz-adv-x="467" d="M229 161l-112 -161h-97l162 232l-160 240h106l109 -161l112 161h97l-162 -232l163 -240l-110 0z" />
<glyph unicode="&#121;" horiz-adv-x="510" d="M406 472h89l-282 -667h-89l86 202l-195 465h97l149 -352z" />
<glyph unicode="&#122;" horiz-adv-x="467" d="M40 0v40l249 352h-241v80h379v-40l-249 -352h242l0 -80z" />
<glyph unicode="&#123;" horiz-adv-x="333" d="M113 280q35 -14 56 -32.5q21 -18.5 32.5 -42.5q11.5 -24 15.5 -55q4 -31 4 -69v-96q0 -33 5 -52q5 -19 16.5 -29q11.5 -10 29 -12.5q17.5 -2.5 41.5 -2.5l0 -70q-44 0 -76.5 9.5q-32.5 9.5 -54 32q-21.5 22.5 -32 58q-10.5 35.5 -10.5 88.5v114q0 43 -9.5 68q-9.5 25 -23.5 38.5q-14 13.5 -29.5 17.5q-15.5 4 -27.5 6l0 58q12 1 27.5 5.5q15.5 4.5 29.5 18q14 13.5 23.5 38.5q9.5 25 9.5 68v114q0 52 10.5 88q10.5 36 32 58.5q21.5 22.5 54 32q32.5 9.5 76.5 9.5l0 -70q-24 0 -41.5 -2.5q-17.5 -2.5 -29 -12.5q-11.5 -10 -16.5 -29q-5 -19 -5 -52v-96q0 -38 -4 -69q-4 -31 -15.5 -55q-11.5 -24 -32.5 -42.5t-56 -32.5z" />
<glyph unicode="&#124;" horiz-adv-x="170" d="M50 -195v935h70l0 -935z" />
<glyph unicode="&#125;" horiz-adv-x="333" d="M220 280q-35 14 -56 32.5q-21 18.5 -32.5 42.5q-11.5 24 -15.5 55q-4 31 -4 69v96q0 33 -5 52q-5 19 -16.5 29q-11.5 10 -29 12.5q-17.5 2.5 -41.5 2.5l0 70q44 0 76.5 -9.5q32.5 -9.5 54 -32q21.5 -22.5 32 -58.5q10.5 -36 10.5 -88v-114q0 -43 9.5 -68q9.5 -25 23.5 -38.5q14 -13.5 29.5 -18q15.5 -4.5 27.5 -5.5l0 -58q-12 -2 -27.5 -6q-15.5 -4 -29.5 -17.5q-14 -13.5 -23.5 -38.5q-9.5 -25 -9.5 -68v-114q0 -53 -10.5 -88.5q-10.5 -35.5 -32 -58q-21.5 -22.5 -54 -32q-32.5 -9.5 -76.5 -9.5l0 70q24 0 41.5 2.5q17.5 2.5 29 12.5q11.5 10 16.5 29q5 19 5 52v96q0 38 4 69q4 31 15.5 55q11.5 24 32.5 42.5t56 32.5z" />
<glyph unicode="&#126;" horiz-adv-x="651" d="M606 300q-30 -20 -52 -34q-22 -14 -41 -22.5q-19 -8.5 -37 -12.5q-18 -4 -40 -4q-30 0 -57 11q-27 11 -54 24q-27 13 -54.5 24q-27.5 11 -56.5 11q-21 0 -37.5 -2.5q-16.5 -2.5 -35 -10.5q-18.5 -8 -41 -22q-22.5 -14 -55.5 -36l0 68q27 19 48.5 33q21.5 14 41 23q19.5 9 38.5 13q19 4 42 4q30 0 57 -11q27 -11 54 -24q27 -13 54 -24q27 -11 57 -11q21 0 37.5 2.5q16.5 2.5 35 10.5q18.5 8 41 21.5q22.5 13.5 55.5 36.5l0 -68z" />
<glyph unicode="&#160;" horiz-adv-x="275" />
<glyph unicode="&#161;" horiz-adv-x="225" d="M141 500l26 -505h-110l24 505zM175 638q0 -26 -18.5 -44.5q-18.5 -18.5 -44.5 -18.5q-26 0 -44 18.5q-18 18.5 -18 44.5q0 26 18 44q18 18 44 18q26 0 44.5 -18t18.5 -44z" />
<glyph unicode="&#162;" horiz-adv-x="490" d="M465 59q-13 -9 -32.5 -21.5q-19.5 -12.5 -44.5 -24.5q-25 -12 -54 -20q-29 -8 -60 -8l-10 -69h-67l11 77q-35 8 -65.5 26.5q-30.5 18.5 -53.5 48q-23 29.5 -36 71q-13 41.5 -13 97.5q0 65 21.5 112q21.5 47 56 78q34.5 31 77.5 46q43 15 86 16l10 69h67l-11 -73q25 -3 49 -8q24 -5 49 -11l-21 -77q-24 6 -46 11q-22 5 -42 7l-50 -338h7q32 0 66 18.5q34 18.5 66 38.5zM137 236q0 -63 22 -101q22 -38 62 -55l48 328q-63 -6 -97.5 -46.5t-34.5 -125.5z" />
<glyph unicode="&#163;" horiz-adv-x="531" d="M52 364h68l25 127q10 49 24.5 90.5q14.5 41.5 38.5 71q24 29.5 60 46q36 16.5 87 16.5q43 0 79 -4.5q36 -4.5 77 -11.5l-19 -89q-26 4 -51 8q-25 4 -47 7q-22 3 -39 4.5q-17 1.5 -27 1.5q-13 0 -25 -6.5q-12 -6.5 -24 -23.5q-12 -17 -22.5 -47.5q-10.5 -30.5 -20.5 -79.5l-22 -110h183v-80h-199l-39 -192q33 16 67 22.5q34 6.5 68 6.5q12 0 35 -2.5q23 -2.5 36 -4.5l144 -23l-18 -103l-205 33q-16 2 -36 4q-20 2 -30 2q-35 0 -60.5 -6.5q-25.5 -6.5 -49.5 -20.5l-60 0l55 284l-53 0z" />
<glyph unicode="&#164;" horiz-adv-x="823" d="M94 351q0 57 18.5 107q18.5 50 50.5 91l-108 109l49 49l108 -109q42 33 92.5 52q50.5 19 107.5 19q57 0 107.5 -19q50.5 -19 91.5 -52l109 109l49 -49l-109 -109q32 -42 50.5 -91.5q18.5 -49.5 18.5 -106.5q0 -57 -18.5 -107.5q-18.5 -50.5 -51.5 -91.5l110 -110l-49 -49l-111 110q-41 -32 -91 -50.5q-50 -18.5 -106 -18.5q-57 0 -107 18.5q-50 18.5 -91 50.5l-110 -110l-49 49l109 109q-33 42 -51.5 92.5q-18.5 50.5 -18.5 107.5zt0 0zM194 351q0 -45 17 -84.5q17 -39.5 47 -69q30 -29.5 69.5 -46.5q39.5 -17 84.5 -17q44 0 83 17q39 17 68 46.5q29 29.5 46 69q17 39.5 17 84.5q0 45 -17 84q-17 39 -46 68q-29 29 -68 46q-39 17 -83 17q-45 0 -84.5 -17q-39.5 -17 -69.5 -46q-30 -29 -47 -68t-17 -84z" />
<glyph unicode="&#165;" horiz-adv-x="598" d="M348 134v-134h-99v134h-220v70h220v51l-15 29h-205v70h168l-182 346h111l177 -340l179 340h101l-182 -346h168v-70h-205l-16 -31v-49h221l0 -70z" />
<glyph unicode="&#166;" horiz-adv-x="170" d="M50 -195v340h70v-340zM50 400v340h70l0 -340z" />
<glyph unicode="&#167;" horiz-adv-x="470" d="M420 283q0 -41 -18.5 -75.5q-18.5 -34.5 -51.5 -63.5q12 -16 21.5 -36q9.5 -20 9.5 -46q0 -36 -12.5 -68q-12.5 -32 -37 -56.5q-24.5 -24.5 -61 -38.5q-36.5 -14 -83.5 -14q-20 0 -39 5.5q-19 5.5 -37 14q-18 8.5 -33.5 18.5q-15.5 10 -27.5 19l43 70q8 -5 21 -13q13 -8 28.5 -15.5q15.5 -7.5 31.5 -13q16 -5.5 31 -5.5q44 0 69 19q25 19 25 54q0 27 -18 49.5q-18 22.5 -44.5 43.5q-26.5 21 -58 42q-31.5 21 -58 47q-26.5 26 -44.5 58q-18 32 -18 75q0 29 12 64.5q12 35.5 54 70.5q-15 16 -21 37.5q-6 21.5 -6 47.5q0 64 42.5 103q42.5 39 115.5 39q35 0 71 -9q36 -9 71 -23v-76q-67 13 -95 20.5q-28 7.5 -52 7.5q-38 0 -54.5 -11.5q-16.5 -11.5 -16.5 -35.5q0 -23 18 -43q18 -20 44.5 -40q26.5 -20 58 -41.5q31.5 -21.5 58 -48q26.5 -26.5 44.5 -58.5q18 -32 18 -74zt0 0zM183 440q-19 -15 -29 -33q-10 -18 -10 -35q0 -26 11 -46.5q11 -20.5 31 -40.5q20 -20 47.5 -41.5q27.5 -21.5 61.5 -47.5q19 15 29 33q10 18 10 35q0 25 -11 46q-11 21 -31 41q-20 20 -47.5 41.5t-61.5 47.5z" />
<glyph unicode="&#168;" horiz-adv-x="492" d="M174 562q-23 0 -40 17q-17 17 -17 40q0 25 17 42.5q17 17.5 40 17.5q26 0 43 -17.5q17 -17.5 17 -42.5q0 -23 -17 -40q-17 -17 -43 -17zt0 0zM369 562q-23 0 -40.5 17q-17.5 17 -17.5 40q0 25 17.5 42.5q17.5 17.5 40.5 17.5q25 0 42 -17.5q17 -17.5 17 -42.5q0 -23 -17 -40t-42 -17z" />
<glyph unicode="&#169;" horiz-adv-x="823" d="M50 351q0 75 28.5 141q28.5 66 77.5 115q49 49 115 77.5q66 28.5 141 28.5q75 0 140.5 -28.5q65.5 -28.5 114.5 -77.5q49 -49 77.5 -115q28.5 -66 28.5 -141q0 -75 -28.5 -140.5q-28.5 -65.5 -77.5 -114.5q-49 -49 -114.5 -77.5q-65.5 -28.5 -140.5 -28.5q-75 0 -141 28.5q-66 28.5 -115 77.5q-49 49 -77.5 114.5q-28.5 65.5 -28.5 140.5zt0 0zM419 578q40 0 71.5 -7q31.5 -7 60.5 -20l-22 -54q-29 11 -52.5 18q-23.5 7 -57.5 7q-33 0 -60.5 -12q-27.5 -12 -47.5 -34q-20 -22 -31 -53.5q-11 -31.5 -11 -71.5q0 -84 42.5 -127q42.5 -43 107.5 -43q35 0 67.5 15.5q32.5 15.5 60.5 34.5l27 -48q-21 -17 -47 -29q-22 -11 -50 -20q-28 -9 -58 -9q-54 0 -95 16.5q-41 16.5 -68.5 46.5q-27.5 30 -41 71.5q-13.5 41.5 -13.5 91.5q0 48 13.5 89.5q13.5 41.5 41 72q27.5 30.5 68.5 48q41 17.5 95 17.5zt0 0zM98 351q0 -65 24.5 -121.5q24.5 -56.5 67.5 -99.5q43 -43 100 -67.5q57 -24.5 122 -24.5q64 0 121 24.5q57 24.5 100 67.5q43 43 67.5 99.5q24.5 56.5 24.5 121.5q0 65 -24.5 122q-24.5 57 -67.5 100q-43 43 -100 67.5q-57 24.5 -121 24.5q-65 0 -122 -24.5q-57 -24.5 -100 -67.5q-43 -43 -67.5 -100t-24.5 -122z" />
<glyph unicode="&#170;" horiz-adv-x="405" d="M276 386q-27 -26 -58.5 -42.5q-31.5 -16.5 -64.5 -16.5q-45 0 -74 23q-29 23 -29 72q0 36 16 60.5q16 24.5 45.5 40q29.5 15.5 71.5 23.5q42 8 93 10q0 30 -5.5 46.5q-5.5 16.5 -15.5 24q-10 7.5 -22.5 9q-12.5 1.5 -27.5 1.5q-13 0 -29 -2.5q-16 -2.5 -32 -6.5q-16 -4 -31 -9q-15 -5 -26 -9l-20 60q28 12 72 21.5q44 9.5 85 9.5q24 0 47.5 -6q23.5 -6 42 -22.5q18.5 -16.5 30 -45.5q11.5 -29 11.5 -75v-217h-79zM177 389q23 0 50 18.5q27 18.5 49 38.5l0 56q-32 -2 -59 -5.5q-27 -3.5 -46.5 -12q-19.5 -8.5 -31 -21.5q-11.5 -13 -11.5 -33q0 -18 11 -29.5t38 -11.5z" />
<glyph unicode="&#171;" horiz-adv-x="416" d="M406 116l-37 -36l-140 150l140 150l37 -36l-92 -114zM309 38l-44 -39l-215 231l215 231l44 -39l-150 -192z" />
<glyph unicode="&#172;" horiz-adv-x="639" d="M519 89v120h-469v70h539l0 -190z" />
<glyph unicode="&#173;" horiz-adv-x="290" d="M30 219v70h230l0 -70z" />
<glyph unicode="&#174;" horiz-adv-x="478" d="M438 520q0 -41 -15.5 -77.5q-15.5 -36.5 -42.5 -63.5q-27 -27 -63.5 -42.5q-36.5 -15.5 -77.5 -15.5q-41 0 -77.5 15.5q-36.5 15.5 -63.5 42.5q-27 27 -42.5 63.5q-15.5 36.5 -15.5 77.5q0 41 15.5 77.5q15.5 36.5 42.5 63.5q27 27 63.5 42.5q36.5 15.5 77.5 15.5q41 0 77.5 -15.5q36.5 -15.5 63.5 -42.5q27 -27 42.5 -63.5q15.5 -36.5 15.5 -77.5zt0 0zM213 400h-37v247h69q33 0 60 -18.5q27 -18.5 27 -57.5q0 -27 -14 -43.5q-14 -16.5 -35 -24.5l64 -103h-43l-60 97h-31zM213 529h26q53 0 53 42q0 44 -53 44h-26zM405 520q0 35 -13 65q-13 30 -35.5 52.5q-22.5 22.5 -52.5 35.5q-30 13 -65 13q-35 0 -65 -13q-30 -13 -52.5 -35.5q-22.5 -22.5 -35.5 -52.5q-13 -30 -13 -65q0 -35 13 -65q13 -30 35.5 -52.5q22.5 -22.5 52.5 -35.5q30 -13 65 -13q35 0 65 13q30 13 52.5 35.5q22.5 22.5 35.5 52.5t13 65z" />
<glyph unicode="&#175;" horiz-adv-x="360" d="M50 589v70h260l0 -70z" />
<glyph unicode="&#176;" horiz-adv-x="296" d="M40 632q0 22 8.5 42q8.5 20 23 34.5q14.5 14.5 34 23q19.5 8.5 42.5 8.5q22 0 42 -8.5q20 -8.5 34.5 -23q14.5 -14.5 23 -34.5q8.5 -20 8.5 -42q0 -23 -8.5 -42.5q-8.5 -19.5 -23 -34q-14.5 -14.5 -34.5 -23q-20 -8.5 -42 -8.5q-23 0 -42.5 8.5q-19.5 8.5 -34 23q-14.5 14.5 -23 34q-8.5 19.5 -8.5 42.5zt0 0zM82 632q0 -26 19 -44.5q19 -18.5 46 -18.5q26 0 44.5 18.5q18.5 18.5 18.5 44.5q0 27 -18.5 46q-18.5 19 -44.5 19q-27 0 -46 -19t-19 -46z" />
<glyph unicode="&#177;" horiz-adv-x="640" d="M355 380h235v-70h-235v-175h-70v175h-235v70h235v174h70zM50 22v70h540l0 -70z" />
<glyph unicode="&#178;" horiz-adv-x="350" d="M62 335v26l120 148q14 17 25 35.5q11 18.5 11 41.5q0 27 -16.5 37.5q-16.5 10.5 -42.5 10.5q-18 0 -35 -8.5q-17 -8.5 -33 -22.5l-41 45q30 26 61 39q31 13 72 13q30 0 52.5 -8q22.5 -8 36.5 -21q14 -13 21 -30q7 -17 7 -35q0 -31 -13 -59q-13 -28 -34 -54l-78 -95h124l0 -63z" />
<glyph unicode="&#179;" horiz-adv-x="354" d="M192 700q28 0 47 -7.5q19 -7.5 30.5 -19.5q11.5 -12 16 -26q4.5 -14 4.5 -27q0 -32 -21 -56.5q-21 -24.5 -59 -38.5q45 -4 69.5 -26q24.5 -22 24.5 -57q0 -22 -9 -42.5q-9 -20.5 -28 -36.5q-19 -16 -47 -26q-28 -10 -65 -10q-38 0 -64.5 11q-26.5 11 -40.5 20l27 50q21 -11 37.5 -16q16.5 -5 33.5 -5q12 0 25.5 3q13.5 3 24.5 9.5q11 6.5 18.5 17.5q7.5 11 7.5 27q0 23 -17 32q-17 9 -40 9q-7 0 -14 -1q-7 -1 -16 -4l-19 47q48 18 73 35.5q25 17.5 25 41.5q0 16 -11 25.5q-11 9.5 -31 9.5q-24 0 -41.5 -9q-17.5 -9 -34.5 -24l-37 42q25 23 56 37.5t75 14.5z" />
<glyph unicode="&#180;" horiz-adv-x="395" d="M225 544h-65l98 162l98 0z" />
<glyph unicode="&#181;" horiz-adv-x="540" d="M90 204v80h-61v70h61v346h187q44 0 86 -12.5q42 -12.5 74.5 -39q32.5 -26.5 52.5 -66.5q20 -40 20 -95q0 -55 -20 -93.5q-20 -38.5 -52.5 -63q-32.5 -24.5 -74.5 -35.5q-42 -11 -86 -11h-87v-80h214v-70h-214v-134h-100v134h-61v70zM259 354q72 0 108.5 36.5q36.5 36.5 36.5 96.5q0 60 -36.5 91.5q-36.5 31.5 -108.5 31.5h-69l0 -256z" />
<glyph unicode="&#182;" horiz-adv-x="546" d="M256 371q-44 0 -83.5 9.5q-39.5 9.5 -69 29.5q-29.5 20 -46.5 51.5q-17 31.5 -17 76.5q0 47 22.5 78.5q22.5 31.5 55.5 50q33 18.5 70.5 26q37.5 7.5 67.5 7.5h210v-846h-70v756h-70v-756l-70 0z" />
<glyph unicode="&#183;" horiz-adv-x="225" d="M50 277q0 26 18.5 44.5q18.5 18.5 44.5 18.5q26 0 44 -18.5q18 -18.5 18 -44.5q0 -26 -18 -44q-18 -18 -44 -18q-26 0 -44.5 18t-18.5 44z" />
<glyph unicode="&#184;" horiz-adv-x="235" d="M40 -163q9 -2 23.5 -3q14.5 -1 21.5 -1q27 0 38.5 10.5q11.5 10.5 11.5 21.5q0 16 -12.5 24q-12.5 8 -32.5 10l-29 3l36 98h71l-28 -66q29 -5 48.5 -21.5q19.5 -16.5 19.5 -41.5q0 -34 -30 -57q-30 -23 -81 -23q-14 0 -28 1q-14 1 -29 5z" />
<glyph unicode="&#185;" horiz-adv-x="310" d="M73 335v57h55v221l-53 -27l-25 41l117 73h38v-308h55l0 -57z" />
<glyph unicode="&#186;" horiz-adv-x="470" d="M235 324q-39 0 -73 12q-34 12 -58.5 36q-24.5 24 -39 59q-14.5 35 -14.5 82q0 46 14.5 81.5q14.5 35.5 39 59q24.5 23.5 58.5 35.5q34 12 73 12q39 0 73 -12q34 -12 58.5 -36q24.5 -24 39 -59.5q14.5 -35.5 14.5 -81.5q0 -47 -14.5 -82q-14.5 -35 -39 -58.5q-24.5 -23.5 -58.5 -35.5q-34 -12 -73 -12zt0 0zM235 384q49 0 77.5 33q28.5 33 28.5 95q0 62 -28.5 95.5q-28.5 33.5 -77.5 33.5q-49 0 -77.5 -33q-28.5 -33 -28.5 -95q0 -62 28.5 -95.5t77.5 -33.5z" />
<glyph unicode="&#187;" horiz-adv-x="416" d="M10 344l37 36l140 -150l-140 -150l-37 36l92 114zM107 422l44 39l215 -231l-215 -231l-44 39l150 192z" />
<glyph unicode="&#188;" horiz-adv-x="741" d="M131 0h-81l560 700h81zM85 335v57h55v221l-53 -27l-25 41l117 73h38v-308h55v-57zM670 82h-49v-82h-76v82h-161v34l186 249h51v-229h49zM545 136v112l-85 -112z" />
<glyph unicode="&#189;" horiz-adv-x="791" d="M131 0h-81l560 700h81zM85 335v57h55v221l-53 -27l-25 41l117 73h38v-308h55v-57zM503 0v26l120 148q14 17 25 35.5q11 18.5 11 41.5q0 27 -16.5 37.5q-16.5 10.5 -42.5 10.5q-18 0 -35 -8.5q-17 -8.5 -33 -22.5l-41 45q30 26 61 39q31 13 72 13q30 0 52.5 -8q22.5 -8 36.5 -21q14 -13 21 -30q7 -17 7 -35q0 -31 -13 -59q-13 -28 -34 -54l-78 -95h124l0 -63z" />
<glyph unicode="&#190;" horiz-adv-x="751" d="M680 82h-49v-82h-76v82h-161v34l186 249h51v-229h49zM555 136v112l-85 -112zM141 0h-81l560 700h81zM192 700q28 0 47 -7.5q19 -7.5 30.5 -19.5q11.5 -12 16 -26q4.5 -14 4.5 -27q0 -32 -21 -56.5q-21 -24.5 -59 -38.5q45 -4 69.5 -26q24.5 -22 24.5 -57q0 -22 -9 -42.5q-9 -20.5 -28 -36.5q-19 -16 -47 -26q-28 -10 -65 -10q-38 0 -64.5 11q-26.5 11 -40.5 20l27 50q21 -11 37.5 -16q16.5 -5 33.5 -5q12 0 25.5 3q13.5 3 24.5 9.5q11 6.5 18.5 17.5q7.5 11 7.5 27q0 23 -17 32q-17 9 -40 9q-7 0 -14 -1q-7 -1 -16 -4l-19 47q48 18 73 35.5q25 17.5 25 41.5q0 16 -11 25.5q-11 9.5 -31 9.5q-24 0 -41.5 -9q-17.5 -9 -34.5 -24l-37 42q25 23 56 37.5t75 14.5z" />
<glyph unicode="&#191;" horiz-adv-x="439" d="M50 157q0 42 14 70q14 28 35.5 48.5q21.5 20.5 46.5 37q25 16.5 46.5 34.5q21.5 18 35.5 41.5q14 23.5 14 58.5q0 25 -7 53l60 0q13 -23 18.5 -43q5.5 -20 5.5 -40q0 -34 -13.5 -59.5q-13.5 -25.5 -33 -46q-19.5 -20.5 -43 -37q-23.5 -16.5 -43 -34q-19.5 -17.5 -33 -36.5q-13.5 -19 -13.5 -44q0 -22 9 -36.5q9 -14.5 22 -23q13 -8.5 28.5 -12q15.5 -3.5 29.5 -3.5q32 0 62.5 7.5q30.5 7.5 65.5 23.5l32 -84q-42 -18 -78.5 -27.5q-36.5 -9.5 -79.5 -9.5q-60 0 -95.5 18.5q-35.5 18.5 -54.5 44.5q-19 26 -25 53.5q-6 27.5 -6 45.5zt0 0zM328 638q0 -26 -18.5 -44.5q-18.5 -18.5 -44.5 -18.5q-26 0 -44 18.5q-18 18.5 -18 44.5q0 26 18 44q18 18 44 18q26 0 44.5 -18t18.5 -44z" />
<glyph unicode="&#192;" horiz-adv-x="633" d="M377 700l241 -700h-105l-65 188h-272l-65 -188h-96l241 700zM207 278h210l-104 305zM218 934h98l98 -162l-65 0z" />
<glyph unicode="&#193;" horiz-adv-x="633" d="M377 700l241 -700h-105l-65 188h-272l-65 -188h-96l241 700zM207 278h210l-104 305zM323 772h-65l98 162l98 0z" />
<glyph unicode="&#194;" horiz-adv-x="633" d="M377 700l241 -700h-105l-65 188h-272l-65 -188h-96l241 700zM207 278h210l-104 305zM483 772h-65l-102 101l-102 -101h-65l118 162l98 0z" />
<glyph unicode="&#195;" horiz-adv-x="633" d="M377 700l241 -700h-105l-65 188h-272l-65 -188h-96l241 700zM207 278h210l-104 305zM379 865q28 0 45.5 14q17.5 14 39.5 47l20 -64q-19 -30 -43.5 -48.5q-24.5 -18.5 -62.5 -18.5q-24 0 -39.5 8q-15.5 8 -29 17q-13.5 9 -26 17q-12.5 8 -30.5 8q-28 0 -45.5 -14q-17.5 -14 -39.5 -47l-20 64q19 30 43.5 48.5q24.5 18.5 62.5 18.5q24 0 39.5 -8q15.5 -8 29 -17q13.5 -9 26 -17t30.5 -8z" />
<glyph unicode="&#196;" horiz-adv-x="633" d="M377 700l241 -700h-105l-65 188h-272l-65 -188h-96l241 700zM207 278h210l-104 305zM218 790q-23 0 -40 17q-17 17 -17 40q0 25 17 42.5q17 17.5 40 17.5q26 0 43 -17.5q17 -17.5 17 -42.5q0 -23 -17 -40q-17 -17 -43 -17zt0 0zM413 790q-23 0 -40.5 17q-17.5 17 -17.5 40q0 25 17.5 42.5q17.5 17.5 40.5 17.5q25 0 42 -17.5q17 -17.5 17 -42.5q0 -23 -17 -40t-42 -17z" />
<glyph unicode="&#197;" horiz-adv-x="633" d="M377 700l241 -700h-105l-65 188h-272l-65 -188h-96l241 700zM207 278h210l-104 305zM236 850q0 34 23.5 57q23.5 23 57.5 23q34 0 57 -23q23 -23 23 -57q0 -34 -23 -57.5q-23 -23.5 -57 -23.5q-34 0 -57.5 23.5q-23.5 23.5 -23.5 57.5zt0 0zM277 850q0 -16 11 -27q11 -11 28 -11q16 0 26.5 11q10.5 11 10.5 27q0 17 -10.5 27.5q-10.5 10.5 -26.5 10.5q-17 0 -28 -10.5t-11 -27.5z" />
<glyph unicode="&#198;" horiz-adv-x="892" d="M817 317h-266l46 -227h255v-90h-341l-37 188h-271l-92 -188h-96l341 700h485v-90h-347l39 -203h284zM247 278h209l-60 305z" />
<glyph unicode="&#199;" horiz-adv-x="661" d="M273 -163q9 -2 23.5 -3q14.5 -1 21.5 -1q27 0 38.5 10.5q11.5 10.5 11.5 21.5q0 16 -12.5 24q-12.5 8 -32.5 10l-29 3l32 88q-71 9 -124.5 39q-53.5 30 -89.5 77q-36 47 -54 108.5q-18 61.5 -18 135.5q0 78 22 144.5q22 66.5 66 115.5q44 49 110 77q66 28 153 28q65 0 121.5 -11.5q56.5 -11.5 101.5 -31.5l-35 -87q-47 18 -90 29q-43 11 -98 11q-52 0 -96 -19q-44 -19 -76.5 -54.5q-32.5 -35.5 -50.5 -86.5q-18 -51 -18 -115q0 -68 18 -119.5q18 -51.5 50.5 -86q32.5 -34.5 76.5 -52q44 -17.5 96 -17.5q57 0 109 25q52 25 98 56l43 -77q-34 -26 -74 -46q-34 -17 -79 -32q-45 -15 -94 -16l-21 -51q29 -5 48.5 -21.5q19.5 -16.5 19.5 -41.5q0 -34 -30 -57q-30 -23 -81 -23q-14 0 -28 1q-14 1 -29 5z" />
<glyph unicode="&#200;" horiz-adv-x="499" d="M424 317h-234v-227h269v-90h-369v700h358v-90h-258v-203h234zM161 934h98l98 -162l-65 0z" />
<glyph unicode="&#201;" horiz-adv-x="499" d="M424 317h-234v-227h269v-90h-369v700h358v-90h-258v-203h234zM277 772h-65l98 162l98 0z" />
<glyph unicode="&#202;" horiz-adv-x="499" d="M424 317h-234v-227h269v-90h-369v700h358v-90h-258v-203h234zM416 772h-65l-102 101l-102 -101h-65l118 162l98 0z" />
<glyph unicode="&#203;" horiz-adv-x="499" d="M424 317h-234v-227h269v-90h-369v700h358v-90h-258v-203h234zM171 790q-23 0 -40 17q-17 17 -17 40q0 25 17 42.5q17 17.5 40 17.5q26 0 43 -17.5q17 -17.5 17 -42.5q0 -23 -17 -40q-17 -17 -43 -17zt0 0zM366 790q-23 0 -40.5 17q-17.5 17 -17.5 40q0 25 17.5 42.5q17.5 17.5 40.5 17.5q25 0 42 -17.5q17 -17.5 17 -42.5q0 -23 -17 -40t-42 -17z" />
<glyph unicode="&#204;" horiz-adv-x="280" d="M90 0v700h100v-700zM42 934h98l98 -162l-65 0z" />
<glyph unicode="&#205;" horiz-adv-x="280" d="M90 0v700h100v-700zM107 772h-65l98 162l98 0z" />
<glyph unicode="&#206;" horiz-adv-x="280" d="M90 0v700h100v-700zM307 772h-65l-102 101l-102 -101h-65l118 162l98 0z" />
<glyph unicode="&#207;" horiz-adv-x="280" d="M90 0v700h100v-700zM198 794q-18 0 -31.5 15q-13.5 15 -13.5 38q0 23 13.5 39.5q13.5 16.5 31.5 16.5q20 0 33.5 -16.5q13.5 -16.5 13.5 -39.5q0 -23 -13.5 -38q-13.5 -15 -33.5 -15zt0 0zM80 794q-17 0 -31 15q-14 15 -14 38q0 23 14 39.5q14 16.5 31 16.5q20 0 34 -16.5q14 -16.5 14 -39.5q0 -23 -14 -38t-34 -15z" />
<glyph unicode="&#208;" horiz-adv-x="666" d="M303 700q90 0 151.5 -31q61.5 -31 99.5 -81q38 -50 55 -112.5q17 -62.5 17 -125.5q0 -63 -17 -125.5q-17 -62.5 -55 -112.5q-38 -50 -99.5 -81q-61.5 -31 -151.5 -31h-213v315h-60v70h60v315zM190 315v-225h98q62 0 105.5 17.5q43.5 17.5 70.5 50.5q27 33 39.5 81.5q12.5 48.5 12.5 110.5q0 62 -12.5 110.5q-12.5 48.5 -39.5 81.5q-27 33 -70.5 50.5q-43.5 17.5 -105.5 17.5h-98v-225h100l0 -70z" />
<glyph unicode="&#209;" horiz-adv-x="750" d="M660 0h-70l-410 510v-510h-90v700h70l410 -511v511h90zM439 865q28 0 45.5 14q17.5 14 39.5 47l20 -64q-19 -30 -43.5 -48.5q-24.5 -18.5 -62.5 -18.5q-24 0 -39.5 8q-15.5 8 -29 17q-13.5 9 -26 17q-12.5 8 -30.5 8q-28 0 -45.5 -14q-17.5 -14 -39.5 -47l-20 64q19 30 43.5 48.5q24.5 18.5 62.5 18.5q24 0 39.5 -8q15.5 -8 29 -17q13.5 -9 26 -17t30.5 -8z" />
<glyph unicode="&#210;" horiz-adv-x="754" d="M377 -15q-81 0 -143.5 29.5q-62.5 29.5 -105.5 79.5q-43 50 -65.5 116q-22.5 66 -22.5 140q0 74 22.5 140q22.5 66 65.5 116q43 50 105.5 79.5q62.5 29.5 143.5 29.5q81 0 143.5 -29.5q62.5 -29.5 105.5 -79.5q43 -50 65.5 -116q22.5 -66 22.5 -140q0 -74 -22.5 -140q-22.5 -66 -65.5 -116q-43 -50 -105.5 -79.5q-62.5 -29.5 -143.5 -29.5zt0 0zM377 75q51 0 94.5 18.5q43.5 18.5 75 54q31.5 35.5 49.5 86.5q18 51 18 116q0 65 -18 116q-18 51 -49.5 86.5q-31.5 35.5 -75 54q-43.5 18.5 -94.5 18.5q-51 0 -94.5 -18.5q-43.5 -18.5 -75 -54q-31.5 -35.5 -49.5 -86.5q-18 -51 -18 -116q0 -65 18 -116q18 -51 49.5 -86.5q31.5 -35.5 75 -54q43.5 -18.5 94.5 -18.5zt0 0zM279 934h98l98 -162l-65 0z" />
<glyph unicode="&#211;" horiz-adv-x="754" d="M377 -15q-81 0 -143.5 29.5q-62.5 29.5 -105.5 79.5q-43 50 -65.5 116q-22.5 66 -22.5 140q0 74 22.5 140q22.5 66 65.5 116q43 50 105.5 79.5q62.5 29.5 143.5 29.5q81 0 143.5 -29.5q62.5 -29.5 105.5 -79.5q43 -50 65.5 -116q22.5 -66 22.5 -140q0 -74 -22.5 -140q-22.5 -66 -65.5 -116q-43 -50 -105.5 -79.5q-62.5 -29.5 -143.5 -29.5zt0 0zM377 75q51 0 94.5 18.5q43.5 18.5 75 54q31.5 35.5 49.5 86.5q18 51 18 116q0 65 -18 116q-18 51 -49.5 86.5q-31.5 35.5 -75 54q-43.5 18.5 -94.5 18.5q-51 0 -94.5 -18.5q-43.5 -18.5 -75 -54q-31.5 -35.5 -49.5 -86.5q-18 -51 -18 -116q0 -65 18 -116q18 -51 49.5 -86.5q31.5 -35.5 75 -54q43.5 -18.5 94.5 -18.5zt0 0zM344 772h-65l98 162l98 0z" />
<glyph unicode="&#212;" horiz-adv-x="754" d="M377 -15q-81 0 -143.5 29.5q-62.5 29.5 -105.5 79.5q-43 50 -65.5 116q-22.5 66 -22.5 140q0 74 22.5 140q22.5 66 65.5 116q43 50 105.5 79.5q62.5 29.5 143.5 29.5q81 0 143.5 -29.5q62.5 -29.5 105.5 -79.5q43 -50 65.5 -116q22.5 -66 22.5 -140q0 -74 -22.5 -140q-22.5 -66 -65.5 -116q-43 -50 -105.5 -79.5q-62.5 -29.5 -143.5 -29.5zt0 0zM377 75q51 0 94.5 18.5q43.5 18.5 75 54q31.5 35.5 49.5 86.5q18 51 18 116q0 65 -18 116q-18 51 -49.5 86.5q-31.5 35.5 -75 54q-43.5 18.5 -94.5 18.5q-51 0 -94.5 -18.5q-43.5 -18.5 -75 -54q-31.5 -35.5 -49.5 -86.5q-18 -51 -18 -116q0 -65 18 -116q18 -51 49.5 -86.5q31.5 -35.5 75 -54q43.5 -18.5 94.5 -18.5zt0 0zM544 772h-65l-102 101l-102 -101h-65l118 162l98 0z" />
<glyph unicode="&#213;" horiz-adv-x="754" d="M377 -15q-81 0 -143.5 29.5q-62.5 29.5 -105.5 79.5q-43 50 -65.5 116q-22.5 66 -22.5 140q0 74 22.5 140q22.5 66 65.5 116q43 50 105.5 79.5q62.5 29.5 143.5 29.5q81 0 143.5 -29.5q62.5 -29.5 105.5 -79.5q43 -50 65.5 -116q22.5 -66 22.5 -140q0 -74 -22.5 -140q-22.5 -66 -65.5 -116q-43 -50 -105.5 -79.5q-62.5 -29.5 -143.5 -29.5zt0 0zM377 75q51 0 94.5 18.5q43.5 18.5 75 54q31.5 35.5 49.5 86.5q18 51 18 116q0 65 -18 116q-18 51 -49.5 86.5q-31.5 35.5 -75 54q-43.5 18.5 -94.5 18.5q-51 0 -94.5 -18.5q-43.5 -18.5 -75 -54q-31.5 -35.5 -49.5 -86.5q-18 -51 -18 -116q0 -65 18 -116q18 -51 49.5 -86.5q31.5 -35.5 75 -54q43.5 -18.5 94.5 -18.5zt0 0zM440 865q28 0 45.5 14q17.5 14 39.5 47l20 -64q-19 -30 -43.5 -48.5q-24.5 -18.5 -62.5 -18.5q-24 0 -39.5 8q-15.5 8 -29 17q-13.5 9 -26 17q-12.5 8 -30.5 8q-28 0 -45.5 -14q-17.5 -14 -39.5 -47l-20 64q19 30 43.5 48.5q24.5 18.5 62.5 18.5q24 0 39.5 -8q15.5 -8 29 -17q13.5 -9 26 -17t30.5 -8z" />
<glyph unicode="&#214;" horiz-adv-x="754" d="M377 -15q-81 0 -143.5 29.5q-62.5 29.5 -105.5 79.5q-43 50 -65.5 116q-22.5 66 -22.5 140q0 74 22.5 140q22.5 66 65.5 116q43 50 105.5 79.5q62.5 29.5 143.5 29.5q81 0 143.5 -29.5q62.5 -29.5 105.5 -79.5q43 -50 65.5 -116q22.5 -66 22.5 -140q0 -74 -22.5 -140q-22.5 -66 -65.5 -116q-43 -50 -105.5 -79.5q-62.5 -29.5 -143.5 -29.5zt0 0zM377 75q51 0 94.5 18.5q43.5 18.5 75 54q31.5 35.5 49.5 86.5q18 51 18 116q0 65 -18 116q-18 51 -49.5 86.5q-31.5 35.5 -75 54q-43.5 18.5 -94.5 18.5q-51 0 -94.5 -18.5q-43.5 -18.5 -75 -54q-31.5 -35.5 -49.5 -86.5q-18 -51 -18 -116q0 -65 18 -116q18 -51 49.5 -86.5q31.5 -35.5 75 -54q43.5 -18.5 94.5 -18.5zt0 0zM278 790q-23 0 -40 17q-17 17 -17 40q0 25 17 42.5q17 17.5 40 17.5q26 0 43 -17.5q17 -17.5 17 -42.5q0 -23 -17 -40q-17 -17 -43 -17zt0 0zM473 790q-23 0 -40.5 17q-17.5 17 -17.5 40q0 25 17.5 42.5q17.5 17.5 40.5 17.5q25 0 42 -17.5q17 -17.5 17 -42.5q0 -23 -17 -40t-42 -17z" />
<glyph unicode="&#215;" horiz-adv-x="640" d="M320 245l-196 -197l-50 50l197 196l-197 196l50 50l196 -197l196 197l50 -50l-197 -196l197 -196l-50 -50z" />
<glyph unicode="&#216;" horiz-adv-x="754" d="M377 -15q-48 0 -88 10q-40 10 -75 29l-14 -24h-72l35 58q-60 51 -91.5 127.5q-31.5 76.5 -31.5 164.5q0 74 22.5 140q22.5 66 65.5 116q43 50 105.5 79.5q62.5 29.5 143.5 29.5q47 0 87 -10q40 -10 75 -29l14 24h72l-35 -58q60 -51 92 -127.5q32 -76.5 32 -164.5q0 -74 -22.5 -140q-22.5 -66 -65.5 -116q-43 -50 -105.5 -79.5q-62.5 -29.5 -143.5 -29.5zt0 0zM377 75q51 0 94.5 18.5q43.5 18.5 75 54q31.5 35.5 49.5 86.5q18 51 18 116q0 69 -19.5 121.5q-19.5 52.5 -54.5 87.5l-278 -456q50 -28 115 -28zt0 0zM140 350q0 -69 19 -121.5q19 -52.5 54 -87.5l277 456q-51 28 -113 28q-51 0 -94.5 -18.5q-43.5 -18.5 -75 -54q-31.5 -35.5 -49.5 -86.5t-18 -116z" />
<glyph unicode="&#217;" horiz-adv-x="715" d="M358 75q46 0 78 12.5q32 12.5 52 34.5q20 22 28.5 51.5q8.5 29.5 8.5 62.5v464h100v-464q0 -62 -19 -109q-19 -47 -54 -78.5q-35 -31.5 -84 -47.5q-49 -16 -110 -16q-61 0 -110.5 16q-49.5 16 -84.5 47.5q-35 31.5 -54 78.5q-19 47 -19 109v464h100v-464q0 -33 9 -62.5q9 -29.5 28.5 -51.5q19.5 -22 51.5 -34.5q32 -12.5 79 -12.5zt0 0zM259 934h98l98 -162l-65 0z" />
<glyph unicode="&#218;" horiz-adv-x="715" d="M358 75q46 0 78 12.5q32 12.5 52 34.5q20 22 28.5 51.5q8.5 29.5 8.5 62.5v464h100v-464q0 -62 -19 -109q-19 -47 -54 -78.5q-35 -31.5 -84 -47.5q-49 -16 -110 -16q-61 0 -110.5 16q-49.5 16 -84.5 47.5q-35 31.5 -54 78.5q-19 47 -19 109v464h100v-464q0 -33 9 -62.5q9 -29.5 28.5 -51.5q19.5 -22 51.5 -34.5q32 -12.5 79 -12.5zt0 0zM324 772h-65l98 162l98 0z" />
<glyph unicode="&#219;" horiz-adv-x="715" d="M358 75q46 0 78 12.5q32 12.5 52 34.5q20 22 28.5 51.5q8.5 29.5 8.5 62.5v464h100v-464q0 -62 -19 -109q-19 -47 -54 -78.5q-35 -31.5 -84 -47.5q-49 -16 -110 -16q-61 0 -110.5 16q-49.5 16 -84.5 47.5q-35 31.5 -54 78.5q-19 47 -19 109v464h100v-464q0 -33 9 -62.5q9 -29.5 28.5 -51.5q19.5 -22 51.5 -34.5q32 -12.5 79 -12.5zt0 0zM524 772h-65l-102 101l-102 -101h-65l118 162l98 0z" />
<glyph unicode="&#220;" horiz-adv-x="715" d="M358 75q46 0 78 12.5q32 12.5 52 34.5q20 22 28.5 51.5q8.5 29.5 8.5 62.5v464h100v-464q0 -62 -19 -109q-19 -47 -54 -78.5q-35 -31.5 -84 -47.5q-49 -16 -110 -16q-61 0 -110.5 16q-49.5 16 -84.5 47.5q-35 31.5 -54 78.5q-19 47 -19 109v464h100v-464q0 -33 9 -62.5q9 -29.5 28.5 -51.5q19.5 -22 51.5 -34.5q32 -12.5 79 -12.5zt0 0zM259 790q-23 0 -40 17q-17 17 -17 40q0 25 17 42.5q17 17.5 40 17.5q26 0 43 -17.5q17 -17.5 17 -42.5q0 -23 -17 -40q-17 -17 -43 -17zt0 0zM454 790q-23 0 -40.5 17q-17.5 17 -17.5 40q0 25 17.5 42.5q17.5 17.5 40.5 17.5q25 0 42 -17.5q17 -17.5 17 -42.5q0 -23 -17 -40t-42 -17z" />
<glyph unicode="&#221;" horiz-adv-x="598" d="M348 0h-99v255l-234 445h111l177 -340l179 340h101l-235 -447zM266 772h-65l98 162l98 0z" />
<glyph unicode="&#222;" horiz-adv-x="540" d="M190 0h-100v715h100v-142h87q44 0 86 -12.5q42 -12.5 74.5 -39q32.5 -26.5 52.5 -66.5q20 -40 20 -95q0 -55 -20 -95q-20 -40 -52.5 -66.5q-32.5 -26.5 -74.5 -39q-42 -12.5 -86 -12.5h-87zM190 237h69q72 0 108.5 31.5q36.5 31.5 36.5 91.5q0 60 -36.5 91.5q-36.5 31.5 -108.5 31.5l-69 0z" />
<glyph unicode="&#223;" horiz-adv-x="541" d="M70 501q0 44 15.5 83q15.5 39 42.5 68q27 29 63 46q36 17 77 17q58 0 93.5 -15.5q35.5 -15.5 55 -38q19.5 -22.5 25.5 -48q6 -25.5 6 -45.5q0 -34 -12 -56.5q-12 -22.5 -30.5 -38.5q-18.5 -16 -39.5 -28q-21 -12 -39.5 -24.5q-18.5 -12.5 -30.5 -28q-12 -15.5 -12 -38.5q0 -21 16 -33.5q16 -12.5 40 -23.5q24 -11 52.5 -22.5q28.5 -11.5 52.5 -29.5q24 -18 40 -44.5q16 -26.5 16 -67.5q0 -35 -12.5 -62.5q-12.5 -27.5 -35.5 -46.5q-23 -19 -55 -29q-32 -10 -70 -10q-37 0 -77.5 17q-40.5 17 -75.5 49l43 66q17 -15 31 -25.5q14 -10.5 26.5 -17q12.5 -6.5 25.5 -9.5q13 -3 29 -3q35 0 59 17q24 17 24 47q0 28 -15 43q-15 15 -38 25q-23 10 -49.5 19q-26.5 9 -49.5 25q-23 16 -38 42q-15 26 -15 70q0 34 11.5 56q11.5 22 29 37.5q17.5 15.5 38 27q20.5 11.5 38 24.5q17.5 13 29 29.5q11.5 16.5 11.5 42.5q0 12 -3 26q-3 14 -13 25q-10 11 -29 18.5q-19 7.5 -52 7.5q-21 0 -40 -7q-19 -7 -34 -23.5q-15 -16.5 -24 -44.5q-9 -28 -9 -69v-500l-91 0z" />
<glyph unicode="&#224;" horiz-adv-x="495" d="M335 70q-38 -36 -79.5 -58.5q-41.5 -22.5 -85.5 -22.5q-29 0 -53.5 7.5q-24.5 7.5 -42.5 23q-18 15.5 -28.5 39.5q-10.5 24 -10.5 56q0 48 21.5 81q21.5 33 60.5 53q39 20 94.5 30.5q55.5 10.5 123.5 13.5q0 43 -8 66.5q-8 23.5 -21.5 34q-13.5 10.5 -31.5 12.5q-18 2 -39 2q-17 0 -37 -3q-20 -3 -40.5 -8.5q-20.5 -5.5 -40 -12q-19.5 -6.5 -35.5 -12.5l-26 77q16 6 39 13q23 7 50 13q27 6 55 9.5q28 3.5 55 3.5q33 0 64 -8.5q31 -8.5 54.5 -31q23.5 -22.5 37.5 -61.5q14 -39 14 -100v-287h-90zM193 66q16 0 34 7.5q18 7.5 37 19q19 11.5 37 26.5q18 15 34 30l0 74q-44 -2 -82.5 -7.5q-38.5 -5.5 -67 -17q-28.5 -11.5 -44.5 -30q-16 -18.5 -16 -46.5q0 -25 15 -40.5q15 -15.5 53 -15.5zt0 0zM134 706h98l98 -162l-65 0z" />
<glyph unicode="&#225;" horiz-adv-x="495" d="M335 70q-38 -36 -79.5 -58.5q-41.5 -22.5 -85.5 -22.5q-29 0 -53.5 7.5q-24.5 7.5 -42.5 23q-18 15.5 -28.5 39.5q-10.5 24 -10.5 56q0 48 21.5 81q21.5 33 60.5 53q39 20 94.5 30.5q55.5 10.5 123.5 13.5q0 43 -8 66.5q-8 23.5 -21.5 34q-13.5 10.5 -31.5 12.5q-18 2 -39 2q-17 0 -37 -3q-20 -3 -40.5 -8.5q-20.5 -5.5 -40 -12q-19.5 -6.5 -35.5 -12.5l-26 77q16 6 39 13q23 7 50 13q27 6 55 9.5q28 3.5 55 3.5q33 0 64 -8.5q31 -8.5 54.5 -31q23.5 -22.5 37.5 -61.5q14 -39 14 -100v-287h-90zM193 66q16 0 34 7.5q18 7.5 37 19q19 11.5 37 26.5q18 15 34 30l0 74q-44 -2 -82.5 -7.5q-38.5 -5.5 -67 -17q-28.5 -11.5 -44.5 -30q-16 -18.5 -16 -46.5q0 -25 15 -40.5q15 -15.5 53 -15.5zt0 0zM210 544h-65l98 162l98 0z" />
<glyph unicode="&#226;" horiz-adv-x="495" d="M335 70q-38 -36 -79.5 -58.5q-41.5 -22.5 -85.5 -22.5q-29 0 -53.5 7.5q-24.5 7.5 -42.5 23q-18 15.5 -28.5 39.5q-10.5 24 -10.5 56q0 48 21.5 81q21.5 33 60.5 53q39 20 94.5 30.5q55.5 10.5 123.5 13.5q0 43 -8 66.5q-8 23.5 -21.5 34q-13.5 10.5 -31.5 12.5q-18 2 -39 2q-17 0 -37 -3q-20 -3 -40.5 -8.5q-20.5 -5.5 -40 -12q-19.5 -6.5 -35.5 -12.5l-26 77q16 6 39 13q23 7 50 13q27 6 55 9.5q28 3.5 55 3.5q33 0 64 -8.5q31 -8.5 54.5 -31q23.5 -22.5 37.5 -61.5q14 -39 14 -100v-287h-90zM193 66q16 0 34 7.5q18 7.5 37 19q19 11.5 37 26.5q18 15 34 30l0 74q-44 -2 -82.5 -7.5q-38.5 -5.5 -67 -17q-28.5 -11.5 -44.5 -30q-16 -18.5 -16 -46.5q0 -25 15 -40.5q15 -15.5 53 -15.5zt0 0zM409 544h-65l-102 101l-102 -101h-65l118 162l98 0z" />
<glyph unicode="&#227;" horiz-adv-x="495" d="M335 70q-38 -36 -79.5 -58.5q-41.5 -22.5 -85.5 -22.5q-29 0 -53.5 7.5q-24.5 7.5 -42.5 23q-18 15.5 -28.5 39.5q-10.5 24 -10.5 56q0 48 21.5 81q21.5 33 60.5 53q39 20 94.5 30.5q55.5 10.5 123.5 13.5q0 43 -8 66.5q-8 23.5 -21.5 34q-13.5 10.5 -31.5 12.5q-18 2 -39 2q-17 0 -37 -3q-20 -3 -40.5 -8.5q-20.5 -5.5 -40 -12q-19.5 -6.5 -35.5 -12.5l-26 77q16 6 39 13q23 7 50 13q27 6 55 9.5q28 3.5 55 3.5q33 0 64 -8.5q31 -8.5 54.5 -31q23.5 -22.5 37.5 -61.5q14 -39 14 -100v-287h-90zM193 66q16 0 34 7.5q18 7.5 37 19q19 11.5 37 26.5q18 15 34 30l0 74q-44 -2 -82.5 -7.5q-38.5 -5.5 -67 -17q-28.5 -11.5 -44.5 -30q-16 -18.5 -16 -46.5q0 -25 15 -40.5q15 -15.5 53 -15.5zt0 0zM305 637q28 0 45.5 14q17.5 14 39.5 47l20 -64q-19 -30 -43.5 -48.5q-24.5 -18.5 -62.5 -18.5q-24 0 -39.5 8q-15.5 8 -29 17q-13.5 9 -26 17q-12.5 8 -30.5 8q-28 0 -45.5 -14q-17.5 -14 -39.5 -47l-20 64q19 30 43.5 48.5q24.5 18.5 62.5 18.5q24 0 39.5 -8q15.5 -8 29 -17q13.5 -9 26 -17t30.5 -8z" />
<glyph unicode="&#228;" horiz-adv-x="495" d="M335 70q-38 -36 -79.5 -58.5q-41.5 -22.5 -85.5 -22.5q-29 0 -53.5 7.5q-24.5 7.5 -42.5 23q-18 15.5 -28.5 39.5q-10.5 24 -10.5 56q0 48 21.5 81q21.5 33 60.5 53q39 20 94.5 30.5q55.5 10.5 123.5 13.5q0 43 -8 66.5q-8 23.5 -21.5 34q-13.5 10.5 -31.5 12.5q-18 2 -39 2q-17 0 -37 -3q-20 -3 -40.5 -8.5q-20.5 -5.5 -40 -12q-19.5 -6.5 -35.5 -12.5l-26 77q16 6 39 13q23 7 50 13q27 6 55 9.5q28 3.5 55 3.5q33 0 64 -8.5q31 -8.5 54.5 -31q23.5 -22.5 37.5 -61.5q14 -39 14 -100v-287h-90zM193 66q16 0 34 7.5q18 7.5 37 19q19 11.5 37 26.5q18 15 34 30l0 74q-44 -2 -82.5 -7.5q-38.5 -5.5 -67 -17q-28.5 -11.5 -44.5 -30q-16 -18.5 -16 -46.5q0 -25 15 -40.5q15 -15.5 53 -15.5zt0 0zM144 562q-23 0 -40 17q-17 17 -17 40q0 25 17 42.5q17 17.5 40 17.5q26 0 43 -17.5q17 -17.5 17 -42.5q0 -23 -17 -40q-17 -17 -43 -17zt0 0zM339 562q-23 0 -40.5 17q-17.5 17 -17.5 40q0 25 17.5 42.5q17.5 17.5 40.5 17.5q25 0 42 -17.5q17 -17.5 17 -42.5q0 -23 -17 -40t-42 -17z" />
<glyph unicode="&#229;" horiz-adv-x="495" d="M335 70q-38 -36 -79.5 -58.5q-41.5 -22.5 -85.5 -22.5q-29 0 -53.5 7.5q-24.5 7.5 -42.5 23q-18 15.5 -28.5 39.5q-10.5 24 -10.5 56q0 48 21.5 81q21.5 33 60.5 53q39 20 94.5 30.5q55.5 10.5 123.5 13.5q0 43 -8 66.5q-8 23.5 -21.5 34q-13.5 10.5 -31.5 12.5q-18 2 -39 2q-17 0 -37 -3q-20 -3 -40.5 -8.5q-20.5 -5.5 -40 -12q-19.5 -6.5 -35.5 -12.5l-26 77q16 6 39 13q23 7 50 13q27 6 55 9.5q28 3.5 55 3.5q33 0 64 -8.5q31 -8.5 54.5 -31q23.5 -22.5 37.5 -61.5q14 -39 14 -100v-287h-90zM193 66q16 0 34 7.5q18 7.5 37 19q19 11.5 37 26.5q18 15 34 30l0 74q-44 -2 -82.5 -7.5q-38.5 -5.5 -67 -17q-28.5 -11.5 -44.5 -30q-16 -18.5 -16 -46.5q0 -25 15 -40.5q15 -15.5 53 -15.5zt0 0zM162 622q0 34 23.5 57q23.5 23 57.5 23q34 0 57 -23q23 -23 23 -57q0 -34 -23 -57.5q-23 -23.5 -57 -23.5q-34 0 -57.5 23.5q-23.5 23.5 -23.5 57.5zt0 0zM203 622q0 -16 11 -27q11 -11 28 -11q16 0 26.5 11q10.5 11 10.5 27q0 17 -10.5 27.5q-10.5 10.5 -26.5 10.5q-17 0 -28 -10.5t-11 -27.5z" />
<glyph unicode="&#230;" horiz-adv-x="787" d="M255 488q44 0 82.5 -17.5q38.5 -17.5 61.5 -59.5q32 41 71.5 59q39.5 18 81.5 18q99 0 151 -62q52 -62 52 -193l-330 0q1 -48 13 -80q12 -32 33 -50.5q21 -18.5 50 -26.5q29 -8 64 -8q16 0 34.5 5.5q18.5 5.5 37 14q18.5 8.5 35 18.5q16.5 10 28.5 19l37 -65q-15 -11 -34.5 -24q-19.5 -13 -43 -24.5q-23.5 -11.5 -51 -19q-27.5 -7.5 -58.5 -7.5q-60 0 -108.5 24.5q-48.5 24.5 -80.5 76.5q-24 -27 -51.5 -45.5q-27.5 -18.5 -54.5 -30q-27 -11.5 -51.5 -16.5q-24.5 -5 -43.5 -5q-65 0 -105 30.5q-40 30.5 -40 95.5q0 48 21.5 81q21.5 33 60.5 53q39 20 94.5 30.5q55.5 10.5 123.5 13.5q0 43 -8 66.5q-8 23.5 -21.5 34q-13.5 10.5 -31.5 12.5q-18 2 -39 2q-17 0 -37 -3q-20 -3 -40.5 -8.5q-20.5 -5.5 -40 -12q-19.5 -6.5 -35.5 -12.5l-26 77q16 6 39 13q23 7 50 13q27 6 55 9.5q28 3.5 55 3.5zt0 0zM193 66q16 0 35.5 6q19.5 6 40.5 17q21 11 40.5 26.5q19.5 15.5 35.5 34.5q-5 14 -7.5 32q-2.5 18 -2.5 41q-44 -2 -82.5 -7.5q-38.5 -5.5 -67 -17q-28.5 -11.5 -44.5 -30q-16 -18.5 -16 -46.5q0 -25 15 -40.5q15 -15.5 53 -15.5zt0 0zM555 408q-43 0 -77 -24q-34 -24 -53 -86l243 0q-2 25 -7.5 45q-5.5 20 -18.5 34.5q-13 14.5 -34 22.5t-53 8z" />
<glyph unicode="&#231;" horiz-adv-x="490" d="M177 -163q9 -2 23.5 -3q14.5 -1 21.5 -1q27 0 38.5 10.5q11.5 10.5 11.5 21.5q0 16 -12.5 24q-12.5 8 -32.5 10l-29 3l32 87q-39 6 -73.5 22.5q-34.5 16.5 -60.5 46.5q-26 30 -41 74q-15 44 -15 104q0 66 22 113.5q22 47.5 57 78q35 30.5 78.5 45.5q43.5 15 86.5 15q38 0 79 -6q41 -6 82 -17l-21 -77q-37 10 -69 15.5q-32 5.5 -61 5.5q-74 0 -115.5 -40.5q-41.5 -40.5 -41.5 -132.5q0 -87 42 -127.5q42 -40.5 114 -40.5q32 0 66 18.5q34 18.5 66 38.5l40 -66q-12 -8 -29 -19.5q-17 -11.5 -38.5 -22q-21.5 -10.5 -46.5 -19q-25 -8.5 -52 -11.5l-22 -53q29 -5 48.5 -21.5q19.5 -16.5 19.5 -41.5q0 -34 -30 -57q-30 -23 -81 -23q-14 0 -28 1q-14 1 -29 5z" />
<glyph unicode="&#232;" horiz-adv-x="492" d="M40 226q0 65 19 114q19 49 50 82q31 33 70 49.5q39 16.5 78 16.5q99 0 151 -62q52 -62 52 -193l-328 0q1 -48 12.5 -80q11.5 -32 32 -50.5q20.5 -18.5 49.5 -26.5q29 -8 64 -8q16 0 34.5 5.5q18.5 5.5 37 14q18.5 8.5 35 18.5q16.5 10 28.5 19l37 -65q-15 -11 -34.5 -24q-19.5 -13 -43 -24.5q-23.5 -11.5 -51 -19q-27.5 -7.5 -58.5 -7.5q-45 0 -87.5 14.5q-42.5 14.5 -75.5 44q-33 29.5 -52.5 75q-19.5 45.5 -19.5 107.5zt0 0zM260 408q-43 0 -72.5 -24.5q-29.5 -24.5 -48.5 -85.5l234 0q-2 25 -7.5 45q-5.5 20 -18.5 34.5q-13 14.5 -34 22.5q-21 8 -53 8zt0 0zM148 706h98l98 -162l-65 0z" />
<glyph unicode="&#233;" horiz-adv-x="492" d="M40 226q0 65 19 114q19 49 50 82q31 33 70 49.5q39 16.5 78 16.5q99 0 151 -62q52 -62 52 -193l-328 0q1 -48 12.5 -80q11.5 -32 32 -50.5q20.5 -18.5 49.5 -26.5q29 -8 64 -8q16 0 34.5 5.5q18.5 5.5 37 14q18.5 8.5 35 18.5q16.5 10 28.5 19l37 -65q-15 -11 -34.5 -24q-19.5 -13 -43 -24.5q-23.5 -11.5 -51 -19q-27.5 -7.5 -58.5 -7.5q-45 0 -87.5 14.5q-42.5 14.5 -75.5 44q-33 29.5 -52.5 75q-19.5 45.5 -19.5 107.5zt0 0zM260 408q-43 0 -72.5 -24.5q-29.5 -24.5 -48.5 -85.5l234 0q-2 25 -7.5 45q-5.5 20 -18.5 34.5q-13 14.5 -34 22.5q-21 8 -53 8zt0 0zM213 544h-65l98 162l98 0z" />
<glyph unicode="&#234;" horiz-adv-x="492" d="M40 226q0 65 19 114q19 49 50 82q31 33 70 49.5q39 16.5 78 16.5q99 0 151 -62q52 -62 52 -193l-328 0q1 -48 12.5 -80q11.5 -32 32 -50.5q20.5 -18.5 49.5 -26.5q29 -8 64 -8q16 0 34.5 5.5q18.5 5.5 37 14q18.5 8.5 35 18.5q16.5 10 28.5 19l37 -65q-15 -11 -34.5 -24q-19.5 -13 -43 -24.5q-23.5 -11.5 -51 -19q-27.5 -7.5 -58.5 -7.5q-45 0 -87.5 14.5q-42.5 14.5 -75.5 44q-33 29.5 -52.5 75q-19.5 45.5 -19.5 107.5zt0 0zM260 408q-43 0 -72.5 -24.5q-29.5 -24.5 -48.5 -85.5l234 0q-2 25 -7.5 45q-5.5 20 -18.5 34.5q-13 14.5 -34 22.5q-21 8 -53 8zt0 0zM423 544h-65l-102 101l-102 -101h-65l118 162l98 0z" />
<glyph unicode="&#235;" horiz-adv-x="492" d="M40 226q0 65 19 114q19 49 50 82q31 33 70 49.5q39 16.5 78 16.5q99 0 151 -62q52 -62 52 -193l-328 0q1 -48 12.5 -80q11.5 -32 32 -50.5q20.5 -18.5 49.5 -26.5q29 -8 64 -8q16 0 34.5 5.5q18.5 5.5 37 14q18.5 8.5 35 18.5q16.5 10 28.5 19l37 -65q-15 -11 -34.5 -24q-19.5 -13 -43 -24.5q-23.5 -11.5 -51 -19q-27.5 -7.5 -58.5 -7.5q-45 0 -87.5 14.5q-42.5 14.5 -75.5 44q-33 29.5 -52.5 75q-19.5 45.5 -19.5 107.5zt0 0zM260 408q-43 0 -72.5 -24.5q-29.5 -24.5 -48.5 -85.5l234 0q-2 25 -7.5 45q-5.5 20 -18.5 34.5q-13 14.5 -34 22.5q-21 8 -53 8zt0 0zM148 562q-23 0 -40 17q-17 17 -17 40q0 25 17 42.5q17 17.5 40 17.5q26 0 43 -17.5q17 -17.5 17 -42.5q0 -23 -17 -40q-17 -17 -43 -17zt0 0zM343 562q-23 0 -40.5 17q-17.5 17 -17.5 40q0 25 17.5 42.5q17.5 17.5 40.5 17.5q25 0 42 -17.5q17 -17.5 17 -42.5q0 -23 -17 -40t-42 -17z" />
<glyph unicode="&#236;" horiz-adv-x="230" d="M160 0h-90v472h90zM17 706h98l98 -162l-65 0z" />
<glyph unicode="&#237;" horiz-adv-x="230" d="M160 0h-90v472h90zM82 544h-65l98 162l98 0z" />
<glyph unicode="&#238;" horiz-adv-x="230" d="M160 0h-90v472h90zM282 544h-65l-102 101l-102 -101h-65l118 162l98 0z" />
<glyph unicode="&#239;" horiz-adv-x="230" d="M173 563q-18 0 -31.5 15q-13.5 15 -13.5 38q0 23 13.5 39.5q13.5 16.5 31.5 16.5q20 0 33.5 -16.5q13.5 -16.5 13.5 -39.5q0 -23 -13.5 -38q-13.5 -15 -33.5 -15zt0 0zM55 563q-17 0 -31 15q-14 15 -14 38q0 23 14 39.5q14 16.5 31 16.5q20 0 34 -16.5q14 -16.5 14 -39.5q0 -23 -14 -38q-14 -15 -34 -15zt0 0zM160 0h-90v472l90 0z" />
<glyph unicode="&#240;" horiz-adv-x="548" d="M265 689q62 -22 107.5 -60q45.5 -38 75.5 -89.5q30 -51.5 45 -116q15 -64.5 15 -139.5q0 -67 -19 -122q-19 -55 -51.5 -94.5q-32.5 -39.5 -76 -61q-43.5 -21.5 -93.5 -21.5q-50 0 -92 15q-42 15 -72 45q-30 30 -47 75.5q-17 45.5 -17 105.5q0 66 20.5 115q20.5 49 55.5 81.5q35 32.5 81 49q46 16.5 96 16.5q23 0 46.5 -3q23.5 -3 43.5 -10q-16 51 -55 85q-39 34 -88 54l-25 -79l-67 21l25 77q-34 7 -69 7l0 75q49 -2 93 -9l22 69l67 -21zM417 280q0 29 -3.5 57.5q-3.5 28.5 -15.5 57.5q-20 6 -49 10q-29 4 -47 4q-41 0 -72.5 -14.5q-31.5 -14.5 -53.5 -39.5q-22 -25 -33.5 -59.5q-11.5 -34.5 -11.5 -73.5q0 -78 37.5 -120q37.5 -42 103.5 -42q34 0 60.5 17q26.5 17 45.5 47q19 30 29 70t10 86z" />
<glyph unicode="&#241;" horiz-adv-x="563" d="M160 414q12 12 28 24.5q16 12.5 35.5 23q19.5 10.5 42.5 17.5q23 7 50 7q35 0 68.5 -12q33.5 -12 60 -38q26.5 -26 42.5 -66q16 -40 16 -96v-274h-91v274q0 37 -9 62q-9 25 -25 40.5q-16 15.5 -36.5 22q-20.5 6.5 -43.5 6.5q-16 0 -35.5 -5q-19.5 -5 -38.5 -13.5q-19 -8.5 -36 -20q-17 -11.5 -28 -24.5l0 -342h-90v472h90zM344 637q28 0 45.5 14q17.5 14 39.5 47l20 -64q-19 -30 -43.5 -48.5q-24.5 -18.5 -62.5 -18.5q-24 0 -39.5 8q-15.5 8 -29 17q-13.5 9 -26 17q-12.5 8 -30.5 8q-28 0 -45.5 -14q-17.5 -14 -39.5 -47l-20 64q19 30 43.5 48.5q24.5 18.5 62.5 18.5q24 0 39.5 -8q15.5 -8 29 -17q13.5 -9 26 -17t30.5 -8z" />
<glyph unicode="&#242;" horiz-adv-x="560" d="M280 -15q-50 0 -94 15.5q-44 15.5 -76.5 47q-32.5 31.5 -51 79q-18.5 47.5 -18.5 110.5q0 63 18.5 110q18.5 47 51 78.5q32.5 31.5 76.5 47q44 15.5 94 15.5q50 0 94 -16q44 -16 76.5 -47.5q32.5 -31.5 51 -78.5q18.5 -47 18.5 -110q0 -63 -18.5 -110q-18.5 -47 -51 -78.5q-32.5 -31.5 -76.5 -47q-44 -15.5 -94 -15.5zt0 0zM280 60q69 0 109.5 45.5q40.5 45.5 40.5 130.5q0 85 -40.5 131q-40.5 46 -109.5 46q-69 0 -109.5 -45.5q-40.5 -45.5 -40.5 -130.5q0 -85 40.5 -131q40.5 -46 109.5 -46zt0 0zM182 706h98l98 -162l-65 0z" />
<glyph unicode="&#243;" horiz-adv-x="560" d="M280 -15q-50 0 -94 15.5q-44 15.5 -76.5 47q-32.5 31.5 -51 79q-18.5 47.5 -18.5 110.5q0 63 18.5 110q18.5 47 51 78.5q32.5 31.5 76.5 47q44 15.5 94 15.5q50 0 94 -16q44 -16 76.5 -47.5q32.5 -31.5 51 -78.5q18.5 -47 18.5 -110q0 -63 -18.5 -110q-18.5 -47 -51 -78.5q-32.5 -31.5 -76.5 -47q-44 -15.5 -94 -15.5zt0 0zM280 60q69 0 109.5 45.5q40.5 45.5 40.5 130.5q0 85 -40.5 131q-40.5 46 -109.5 46q-69 0 -109.5 -45.5q-40.5 -45.5 -40.5 -130.5q0 -85 40.5 -131q40.5 -46 109.5 -46zt0 0zM247 544h-65l98 162l98 0z" />
<glyph unicode="&#244;" horiz-adv-x="560" d="M280 -15q-50 0 -94 15.5q-44 15.5 -76.5 47q-32.5 31.5 -51 79q-18.5 47.5 -18.5 110.5q0 63 18.5 110q18.5 47 51 78.5q32.5 31.5 76.5 47q44 15.5 94 15.5q50 0 94 -16q44 -16 76.5 -47.5q32.5 -31.5 51 -78.5q18.5 -47 18.5 -110q0 -63 -18.5 -110q-18.5 -47 -51 -78.5q-32.5 -31.5 -76.5 -47q-44 -15.5 -94 -15.5zt0 0zM280 60q69 0 109.5 45.5q40.5 45.5 40.5 130.5q0 85 -40.5 131q-40.5 46 -109.5 46q-69 0 -109.5 -45.5q-40.5 -45.5 -40.5 -130.5q0 -85 40.5 -131q40.5 -46 109.5 -46zt0 0zM447 544h-65l-102 101l-102 -101h-65l118 162l98 0z" />
<glyph unicode="&#245;" horiz-adv-x="560" d="M280 -15q-50 0 -94 15.5q-44 15.5 -76.5 47q-32.5 31.5 -51 79q-18.5 47.5 -18.5 110.5q0 63 18.5 110q18.5 47 51 78.5q32.5 31.5 76.5 47q44 15.5 94 15.5q50 0 94 -16q44 -16 76.5 -47.5q32.5 -31.5 51 -78.5q18.5 -47 18.5 -110q0 -63 -18.5 -110q-18.5 -47 -51 -78.5q-32.5 -31.5 -76.5 -47q-44 -15.5 -94 -15.5zt0 0zM280 60q69 0 109.5 45.5q40.5 45.5 40.5 130.5q0 85 -40.5 131q-40.5 46 -109.5 46q-69 0 -109.5 -45.5q-40.5 -45.5 -40.5 -130.5q0 -85 40.5 -131q40.5 -46 109.5 -46zt0 0zM343 637q28 0 45.5 14q17.5 14 39.5 47l20 -64q-19 -30 -43.5 -48.5q-24.5 -18.5 -62.5 -18.5q-24 0 -39.5 8q-15.5 8 -29 17q-13.5 9 -26 17q-12.5 8 -30.5 8q-28 0 -45.5 -14q-17.5 -14 -39.5 -47l-20 64q19 30 43.5 48.5q24.5 18.5 62.5 18.5q24 0 39.5 -8q15.5 -8 29 -17q13.5 -9 26 -17t30.5 -8z" />
<glyph unicode="&#246;" horiz-adv-x="560" d="M280 -15q-50 0 -94 15.5q-44 15.5 -76.5 47q-32.5 31.5 -51 79q-18.5 47.5 -18.5 110.5q0 63 18.5 110q18.5 47 51 78.5q32.5 31.5 76.5 47q44 15.5 94 15.5q50 0 94 -16q44 -16 76.5 -47.5q32.5 -31.5 51 -78.5q18.5 -47 18.5 -110q0 -63 -18.5 -110q-18.5 -47 -51 -78.5q-32.5 -31.5 -76.5 -47q-44 -15.5 -94 -15.5zt0 0zM280 60q69 0 109.5 45.5q40.5 45.5 40.5 130.5q0 85 -40.5 131q-40.5 46 -109.5 46q-69 0 -109.5 -45.5q-40.5 -45.5 -40.5 -130.5q0 -85 40.5 -131q40.5 -46 109.5 -46zt0 0zM181 562q-23 0 -40 17q-17 17 -17 40q0 25 17 42.5q17 17.5 40 17.5q26 0 43 -17.5q17 -17.5 17 -42.5q0 -23 -17 -40q-17 -17 -43 -17zt0 0zM376 562q-23 0 -40.5 17q-17.5 17 -17.5 40q0 25 17.5 42.5q17.5 17.5 40.5 17.5q25 0 42 -17.5q17 -17.5 17 -42.5q0 -23 -17 -40t-42 -17z" />
<glyph unicode="&#247;" horiz-adv-x="640" d="M383 128q0 -26 -18 -43.5q-18 -17.5 -45 -17.5q-25 0 -43 17.5q-18 17.5 -18 43.5q0 26 18 44.5q18 18.5 43 18.5q27 0 45 -18.5q18 -18.5 18 -44.5zt0 0zM383 439q0 -26 -18 -43.5q-18 -17.5 -45 -17.5q-25 0 -43 17.5q-18 17.5 -18 43.5q0 26 18 44.5q18 18.5 43 18.5q27 0 45 -18.5q18 -18.5 18 -44.5zt0 0zM50 249v70h540l0 -70z" />
<glyph unicode="&#248;" horiz-adv-x="560" d="M280 -15q-85 0 -145 42l-23 -27h-82l60 70q-23 31 -36.5 72q-13.5 41 -13.5 95q0 63 18.5 110q18.5 47 51 78.5q32.5 31.5 76.5 47q44 15.5 94 15.5q80 0 139 -38l19 22h82l-55 -64q26 -31 40.5 -74q14.5 -43 14.5 -98q0 -63 -18.5 -110q-18.5 -47 -51 -78.5q-32.5 -31.5 -76.5 -47q-44 -15.5 -94 -15.5zt0 0zM280 60q69 0 109.5 45.5q40.5 45.5 40.5 130.5q0 62 -23 105l-218 -252q37 -29 91 -29zt0 0zM130 237q0 -57 20 -99l215 250q-36 25 -85 25q-69 0 -109.5 -45.5t-40.5 -130.5z" />
<glyph unicode="&#249;" horiz-adv-x="539" d="M469 0h-90v76q-13 -15 -30 -30.5q-17 -15.5 -37.5 -28q-20.5 -12.5 -42.5 -20.5q-22 -8 -46 -8q-38 0 -68 10.5q-30 10.5 -51 35q-21 24.5 -32.5 64q-11.5 39.5 -11.5 97.5v276h90v-276q0 -39 8.5 -62q8.5 -23 22.5 -35.5q14 -12.5 33.5 -16q19.5 -3.5 42.5 -3.5q35 0 65.5 21.5q30.5 21.5 56.5 53.5l0 318h90zM171 706h98l98 -162l-65 0z" />
<glyph unicode="&#250;" horiz-adv-x="539" d="M469 0h-90v76q-13 -15 -30 -30.5q-17 -15.5 -37.5 -28q-20.5 -12.5 -42.5 -20.5q-22 -8 -46 -8q-38 0 -68 10.5q-30 10.5 -51 35q-21 24.5 -32.5 64q-11.5 39.5 -11.5 97.5v276h90v-276q0 -39 8.5 -62q8.5 -23 22.5 -35.5q14 -12.5 33.5 -16q19.5 -3.5 42.5 -3.5q35 0 65.5 21.5q30.5 21.5 56.5 53.5l0 318h90zM236 544h-65l98 162l98 0z" />
<glyph unicode="&#251;" horiz-adv-x="539" d="M469 0h-90v76q-13 -15 -30 -30.5q-17 -15.5 -37.5 -28q-20.5 -12.5 -42.5 -20.5q-22 -8 -46 -8q-38 0 -68 10.5q-30 10.5 -51 35q-21 24.5 -32.5 64q-11.5 39.5 -11.5 97.5v276h90v-276q0 -39 8.5 -62q8.5 -23 22.5 -35.5q14 -12.5 33.5 -16q19.5 -3.5 42.5 -3.5q35 0 65.5 21.5q30.5 21.5 56.5 53.5l0 318h90zM436 544h-65l-102 101l-102 -101h-65l118 162l98 0z" />
<glyph unicode="&#252;" horiz-adv-x="539" d="M469 0h-90v76q-13 -15 -30 -30.5q-17 -15.5 -37.5 -28q-20.5 -12.5 -42.5 -20.5q-22 -8 -46 -8q-38 0 -68 10.5q-30 10.5 -51 35q-21 24.5 -32.5 64q-11.5 39.5 -11.5 97.5v276h90v-276q0 -39 8.5 -62q8.5 -23 22.5 -35.5q14 -12.5 33.5 -16q19.5 -3.5 42.5 -3.5q35 0 65.5 21.5q30.5 21.5 56.5 53.5l0 318h90zM171 562q-23 0 -40 17q-17 17 -17 40q0 25 17 42.5q17 17.5 40 17.5q26 0 43 -17.5q17 -17.5 17 -42.5q0 -23 -17 -40q-17 -17 -43 -17zt0 0zM366 562q-23 0 -40.5 17q-17.5 17 -17.5 40q0 25 17.5 42.5q17.5 17.5 40.5 17.5q25 0 42 -17.5q17 -17.5 17 -42.5q0 -23 -17 -40t-42 -17z" />
<glyph unicode="&#253;" horiz-adv-x="510" d="M406 472h89l-282 -667h-89l86 202l-195 465h97l149 -352zM222 544h-65l98 162l98 0z" />
<glyph unicode="&#254;" horiz-adv-x="559" d="M427 245q0 46 -14.5 77.5q-14.5 31.5 -36.5 50q-22 18.5 -46.5 26.5q-24.5 8 -43.5 8q-38 0 -69 -15.5q-31 -15.5 -57 -38.5l0 -255q10 -10 24 -17.5q14 -7.5 30 -12q16 -4.5 32 -7q16 -2.5 30 -2.5q17 0 42.5 4q25.5 4 49.5 22.5q24 18.5 41.5 56q17.5 37.5 17.5 103.5zt0 0zM519 245q0 -68 -20.5 -117.5q-20.5 -49.5 -53 -81q-32.5 -31.5 -71 -46.5q-38.5 -15 -74.5 -15q-33 0 -72.5 9q-39.5 9 -67.5 26l0 -215h-90v895h90v-266q25 19 63 36.5q38 17.5 86 17.5q43 0 81 -18q38 -18 66.5 -50.5q28.5 -32.5 45.5 -77t17 -97.5z" />
<glyph unicode="&#255;" horiz-adv-x="510" d="M406 472h89l-282 -667h-89l86 202l-195 465h97l149 -352zM157 562q-23 0 -40 17q-17 17 -17 40q0 25 17 42.5q17 17.5 40 17.5q26 0 43 -17.5q17 -17.5 17 -42.5q0 -23 -17 -40q-17 -17 -43 -17zt0 0zM352 562q-23 0 -40.5 17q-17.5 17 -17.5 40q0 25 17.5 42.5q17.5 17.5 40.5 17.5q25 0 42 -17.5q17 -17.5 17 -42.5q0 -23 -17 -40t-42 -17z" />
<glyph unicode="&#256;" horiz-adv-x="633" d="M186 789v70h261v-70zM377 700l241 -700h-105l-65 188h-272l-65 -188h-96l241 700zM207 278h210l-104 305z" />
<glyph unicode="&#257;" horiz-adv-x="495" d="M110 589v70h260v-70zM335 70q-38 -36 -79.5 -58.5q-41.5 -22.5 -85.5 -22.5q-29 0 -53.5 7.5q-24.5 7.5 -42.5 23q-18 15.5 -28.5 39.5q-10.5 24 -10.5 56q0 48 21.5 81q21.5 33 60.5 53q39 20 94.5 30.5q55.5 10.5 123.5 13.5q0 43 -8 66.5q-8 23.5 -21.5 34q-13.5 10.5 -31.5 12.5q-18 2 -39 2q-17 0 -37 -3q-20 -3 -40.5 -8.5q-20.5 -5.5 -40 -12q-19.5 -6.5 -35.5 -12.5l-26 77q16 6 39 13q23 7 50 13q27 6 55 9.5q28 3.5 55 3.5q33 0 64 -8.5q31 -8.5 54.5 -31q23.5 -22.5 37.5 -61.5q14 -39 14 -100v-287h-90zM193 66q16 0 34 7.5q18 7.5 37 19q19 11.5 37 26.5q18 15 34 30l0 74q-44 -2 -82.5 -7.5q-38.5 -5.5 -67 -17q-28.5 -11.5 -44.5 -30q-16 -18.5 -16 -46.5q0 -25 15 -40.5t53 -15.5z" />
<glyph unicode="&#260;" horiz-adv-x="633" d="M513 0l-65 188h-272l-65 -188h-96l241 700h121l241 -700q-50 -33 -68 -61q-18 -28 -18 -49q0 -18 11.5 -30q11.5 -12 38.5 -12q6 0 17 1q11 1 19 3l0 -37q-14 -9 -34.5 -16.5q-20.5 -7.5 -45.5 -7.5q-22 0 -37 8q-15 8 -24.5 19.5q-9.5 11.5 -13.5 25q-4 13.5 -4 25.5q0 32 24 67q24 35 67 64zM207 278h210l-104 305z" />
<glyph unicode="&#261;" horiz-adv-x="495" d="M335 70q-38 -36 -79.5 -58.5q-41.5 -22.5 -85.5 -22.5q-29 0 -53.5 7.5q-24.5 7.5 -42.5 23q-18 15.5 -28.5 39.5q-10.5 24 -10.5 56q0 48 21.5 81q21.5 33 60.5 53q39 20 94.5 30.5q55.5 10.5 123.5 13.5q0 43 -8 66.5q-8 23.5 -21.5 34q-13.5 10.5 -31.5 12.5q-18 2 -39 2q-17 0 -37 -3q-20 -3 -40.5 -8.5q-20.5 -5.5 -40 -12q-19.5 -6.5 -35.5 -12.5l-26 77q16 6 39 13q23 7 50 13q27 6 55 9.5q28 3.5 55 3.5q33 0 64 -8.5q31 -8.5 54.5 -31q23.5 -22.5 37.5 -61.5q14 -39 14 -100v-287q-50 -33 -68 -61q-18 -28 -18 -49q0 -18 11.5 -30q11.5 -12 38.5 -12q6 0 17 1q11 1 19 3l0 -37q-14 -9 -34.5 -16.5q-20.5 -7.5 -45.5 -7.5q-22 0 -37 8q-15 8 -24.5 19.5q-9.5 11.5 -13.5 25q-4 13.5 -4 25.5q0 32 24 67q24 35 67 64l-22 0zM193 66q16 0 34 7.5q18 7.5 37 19q19 11.5 37 26.5q18 15 34 30l0 74q-44 -2 -82.5 -7.5q-38.5 -5.5 -67 -17q-28.5 -11.5 -44.5 -30q-16 -18.5 -16 -46.5q0 -25 15 -40.5t53 -15.5z" />
<glyph unicode="&#262;" horiz-adv-x="661" d="M391 715q65 0 121.5 -11.5q56.5 -11.5 101.5 -31.5l-35 -87q-47 18 -90 29q-43 11 -98 11q-52 0 -96 -19q-44 -19 -76.5 -54.5q-32.5 -35.5 -50.5 -86.5q-18 -51 -18 -115q0 -68 18 -119.5q18 -51.5 50.5 -86q32.5 -34.5 76.5 -52q44 -17.5 96 -17.5q57 0 109 25q52 25 98 56l43 -77q-36 -27 -76 -47q-35 -18 -79.5 -32.5q-44.5 -14.5 -94.5 -14.5q-87 0 -153 26.5q-66 26.5 -110 74.5q-44 48 -66 115.5q-22 67.5 -22 148.5q0 78 22 144.5q22 66.5 66 115.5q44 49 110 77q66 28 153 28zt0 0zM297 772h-65l98 162l98 0z" />
<glyph unicode="&#263;" horiz-adv-x="490" d="M465 59q-13 -9 -32.5 -21.5q-19.5 -12.5 -44 -24.5q-24.5 -12 -53.5 -20q-29 -8 -60 -8q-45 0 -87.5 13.5q-42.5 13.5 -75.5 43.5q-33 30 -52.5 78q-19.5 48 -19.5 116q0 66 22 113.5q22 47.5 57 78q35 30.5 78.5 45.5q43.5 15 86.5 15q38 0 79 -6q41 -6 82 -17l-21 -77q-37 10 -69 15.5q-32 5.5 -61 5.5q-74 0 -115.5 -40.5q-41.5 -40.5 -41.5 -132.5q0 -87 42 -127.5q42 -40.5 114 -40.5q32 0 66 18.5q34 18.5 66 38.5zM212 544h-65l98 162l98 0z" />
<glyph unicode="&#268;" horiz-adv-x="661" d="M391 715q65 0 121.5 -11.5q56.5 -11.5 101.5 -31.5l-35 -87q-47 18 -90 29q-43 11 -98 11q-52 0 -96 -19q-44 -19 -76.5 -54.5q-32.5 -35.5 -50.5 -86.5q-18 -51 -18 -115q0 -68 18 -119.5q18 -51.5 50.5 -86q32.5 -34.5 76.5 -52q44 -17.5 96 -17.5q57 0 109 25q52 25 98 56l43 -77q-36 -27 -76 -47q-35 -18 -79.5 -32.5q-44.5 -14.5 -94.5 -14.5q-87 0 -153 26.5q-66 26.5 -110 74.5q-44 48 -66 115.5q-22 67.5 -22 148.5q0 78 22 144.5q22 66.5 66 115.5q44 49 110 77q66 28 153 28zt0 0zM379 772h-98l-118 162h65l102 -101l102 101l65 0z" />
<glyph unicode="&#269;" horiz-adv-x="490" d="M465 59q-13 -9 -32.5 -21.5q-19.5 -12.5 -44 -24.5q-24.5 -12 -53.5 -20q-29 -8 -60 -8q-45 0 -87.5 13.5q-42.5 13.5 -75.5 43.5q-33 30 -52.5 78q-19.5 48 -19.5 116q0 66 22 113.5q22 47.5 57 78q35 30.5 78.5 45.5q43.5 15 86.5 15q38 0 79 -6q41 -6 82 -17l-21 -77q-37 10 -69 15.5q-32 5.5 -61 5.5q-74 0 -115.5 -40.5q-41.5 -40.5 -41.5 -132.5q0 -87 42 -127.5q42 -40.5 114 -40.5q32 0 66 18.5q34 18.5 66 38.5zM294 544h-98l-118 162h65l102 -101l102 101l65 0z" />
<glyph unicode="&#270;" horiz-adv-x="666" d="M303 700q90 0 151.5 -31q61.5 -31 99.5 -81q38 -50 55 -112.5q17 -62.5 17 -125.5q0 -63 -17 -125.5q-17 -62.5 -55 -112.5q-38 -50 -99.5 -81q-61.5 -31 -151.5 -31h-213v700zM288 90q62 0 105.5 17.5q43.5 17.5 70.5 50.5q27 33 39.5 81.5q12.5 48.5 12.5 110.5q0 62 -12.5 110.5q-12.5 48.5 -39.5 81.5q-27 33 -70.5 50.5q-43.5 17.5 -105.5 17.5h-98v-520zM382 772h-98l-118 162h65l102 -101l102 101l65 0z" />
<glyph unicode="&#271;" horiz-adv-x="699" d="M410 0v67q-13 -14 -30 -28.5q-17 -14.5 -37.5 -26.5q-20.5 -12 -44 -19.5q-23.5 -7.5 -48.5 -7.5q-39 0 -76.5 14q-37.5 14 -67.5 44q-30 30 -48 78q-18 48 -18 116q0 66 21.5 113q21.5 47 55 78q33.5 31 74 45.5q40.5 14.5 78.5 14.5q42 0 77 -11q35 -11 64 -27l0 250h91v-700zM410 365q-29 20 -57.5 31.5q-28.5 11.5 -69.5 11.5q-22 0 -48 -7q-26 -7 -49 -25.5q-23 -18.5 -38.5 -52q-15.5 -33.5 -15.5 -86.5q0 -47 11 -79.5q11 -32.5 29.5 -52q18.5 -19.5 44 -28q25.5 -8.5 54.5 -8.5q38 0 73.5 22.5q35.5 22.5 65.5 57.5zM689 619q0 -22 -11 -46q-11 -24 -26 -47q-15 -23 -31 -43q-16 -20 -26 -32l-39 22l56 102q-24 2 -41 19.5q-17 17.5 -17 42.5q0 25 18.5 44q18.5 19 44.5 19q29 0 50.5 -21t21.5 -60z" />
<glyph unicode="&#272;" horiz-adv-x="666" d="M303 700q90 0 151.5 -31q61.5 -31 99.5 -81q38 -50 55 -112.5q17 -62.5 17 -125.5q0 -63 -17 -125.5q-17 -62.5 -55 -112.5q-38 -50 -99.5 -81q-61.5 -31 -151.5 -31h-213v315h-60v70h60v315zM190 315v-225h98q62 0 105.5 17.5q43.5 17.5 70.5 50.5q27 33 39.5 81.5q12.5 48.5 12.5 110.5q0 62 -12.5 110.5q-12.5 48.5 -39.5 81.5q-27 33 -70.5 50.5q-43.5 17.5 -105.5 17.5h-98v-225h100l0 -70z" />
<glyph unicode="&#273;" horiz-adv-x="571" d="M410 700h91v-90h59v-70h-59v-540h-91v67q-13 -14 -30 -28.5q-17 -14.5 -37.5 -26.5q-20.5 -12 -44 -19.5q-23.5 -7.5 -48.5 -7.5q-39 0 -76.5 14q-37.5 14 -67.5 44q-30 30 -48 78q-18 48 -18 116q0 66 21.5 113q21.5 47 55 78q33.5 31 74 45.5q40.5 14.5 78.5 14.5q42 0 77 -11q35 -11 64 -27l0 90h-143v70h143zM410 365q-29 20 -57.5 31.5q-28.5 11.5 -69.5 11.5q-22 0 -48 -7q-26 -7 -49 -25.5q-23 -18.5 -38.5 -52q-15.5 -33.5 -15.5 -86.5q0 -47 11 -79.5q11 -32.5 29.5 -52q18.5 -19.5 44 -28q25.5 -8.5 54.5 -8.5q38 0 73.5 22.5q35.5 22.5 65.5 57.5z" />
<glyph unicode="&#274;" horiz-adv-x="499" d="M146 789v70h261v-70zM424 317h-234v-227h269v-90h-369v700h358v-90h-258v-203l234 0z" />
<glyph unicode="&#275;" horiz-adv-x="492" d="M150 589v70h260v-70zM40 226q0 65 19 114q19 49 50 82q31 33 70 49.5q39 16.5 78 16.5q99 0 151 -62q52 -62 52 -193l-328 0q1 -48 12.5 -80q11.5 -32 32 -50.5q20.5 -18.5 49.5 -26.5q29 -8 64 -8q16 0 34.5 5.5q18.5 5.5 37 14q18.5 8.5 35 18.5q16.5 10 28.5 19l37 -65q-15 -11 -34.5 -24q-19.5 -13 -43 -24.5q-23.5 -11.5 -51 -19q-27.5 -7.5 -58.5 -7.5q-45 0 -87.5 14.5q-42.5 14.5 -75.5 44q-33 29.5 -52.5 75q-19.5 45.5 -19.5 107.5zt0 0zM260 408q-43 0 -72.5 -24.5q-29.5 -24.5 -48.5 -85.5l234 0q-2 25 -7.5 45q-5.5 20 -18.5 34.5q-13 14.5 -34 22.5t-53 8z" />
<glyph unicode="&#278;" horiz-adv-x="499" d="M424 317h-234v-227h269v-90h-369v700h358v-90h-258v-203h234zM279 790q-23 0 -40.5 17q-17.5 17 -17.5 40q0 25 17.5 42.5q17.5 17.5 40.5 17.5q25 0 42 -17.5q17 -17.5 17 -42.5q0 -23 -17 -40t-42 -17z" />
<glyph unicode="&#279;" horiz-adv-x="492" d="M40 226q0 65 19 114q19 49 50 82q31 33 70 49.5q39 16.5 78 16.5q99 0 151 -62q52 -62 52 -193l-328 0q1 -48 12.5 -80q11.5 -32 32 -50.5q20.5 -18.5 49.5 -26.5q29 -8 64 -8q16 0 34.5 5.5q18.5 5.5 37 14q18.5 8.5 35 18.5q16.5 10 28.5 19l37 -65q-15 -11 -34.5 -24q-19.5 -13 -43 -24.5q-23.5 -11.5 -51 -19q-27.5 -7.5 -58.5 -7.5q-45 0 -87.5 14.5q-42.5 14.5 -75.5 44q-33 29.5 -52.5 75q-19.5 45.5 -19.5 107.5zt0 0zM260 408q-43 0 -72.5 -24.5q-29.5 -24.5 -48.5 -85.5l234 0q-2 25 -7.5 45q-5.5 20 -18.5 34.5q-13 14.5 -34 22.5q-21 8 -53 8zt0 0zM245 562q-23 0 -40.5 17q-17.5 17 -17.5 40q0 25 17.5 42.5q17.5 17.5 40.5 17.5q25 0 42 -17.5q17 -17.5 17 -42.5q0 -23 -17 -40t-42 -17z" />
<glyph unicode="&#280;" horiz-adv-x="499" d="M90 0v700h358v-90h-258v-203h234v-90h-234v-227h269v-90q-50 -33 -68 -61q-18 -28 -18 -49q0 -18 11.5 -30q11.5 -12 38.5 -12q6 0 17 1q11 1 19 3l0 -37q-14 -9 -34.5 -16.5q-20.5 -7.5 -45.5 -7.5q-22 0 -37 8q-15 8 -24.5 19.5q-9.5 11.5 -13.5 25q-4 13.5 -4 25.5q0 32 24 67q24 35 67 64z" />
<glyph unicode="&#281;" horiz-adv-x="492" d="M40 226q0 65 19 114q19 49 50 82q31 33 70 49.5q39 16.5 78 16.5q99 0 151 -62q52 -62 52 -193l-328 0q1 -48 12.5 -80q11.5 -32 32 -50.5q20.5 -18.5 49.5 -26.5q29 -8 64 -8q16 0 34.5 5.5q18.5 5.5 37 14q18.5 8.5 35 18.5q16.5 10 28.5 19l37 -65q-20 -14 -46.5 -31.5q-26.5 -17.5 -59.5 -28.5q-50 -33 -67.5 -61q-17.5 -28 -17.5 -49q0 -18 11.5 -30q11.5 -12 38.5 -12q6 0 17 1q11 1 19 3l0 -37q-14 -9 -34.5 -16.5q-20.5 -7.5 -45.5 -7.5q-22 0 -37 8q-15 8 -24.5 19.5q-9.5 11.5 -13.5 25q-4 13.5 -4 25.5q0 29 18.5 59q18.5 30 51.5 57q-44 1 -85.5 16q-41.5 15 -73 44.5q-31.5 29.5 -50.5 74.5q-19 45 -19 106zt0 0zM260 408q-43 0 -72.5 -24.5q-29.5 -24.5 -48.5 -85.5l234 0q-2 25 -7.5 45q-5.5 20 -18.5 34.5q-13 14.5 -34 22.5t-53 8z" />
<glyph unicode="&#282;" horiz-adv-x="499" d="M424 317h-234v-227h269v-90h-369v700h358v-90h-258v-203h234zM298 772h-98l-118 162h65l102 -101l102 101l65 0z" />
<glyph unicode="&#283;" horiz-adv-x="492" d="M40 226q0 65 19 114q19 49 50 82q31 33 70 49.5q39 16.5 78 16.5q99 0 151 -62q52 -62 52 -193l-328 0q1 -48 12.5 -80q11.5 -32 32 -50.5q20.5 -18.5 49.5 -26.5q29 -8 64 -8q16 0 34.5 5.5q18.5 5.5 37 14q18.5 8.5 35 18.5q16.5 10 28.5 19l37 -65q-15 -11 -34.5 -24q-19.5 -13 -43 -24.5q-23.5 -11.5 -51 -19q-27.5 -7.5 -58.5 -7.5q-45 0 -87.5 14.5q-42.5 14.5 -75.5 44q-33 29.5 -52.5 75q-19.5 45.5 -19.5 107.5zt0 0zM260 408q-43 0 -72.5 -24.5q-29.5 -24.5 -48.5 -85.5l234 0q-2 25 -7.5 45q-5.5 20 -18.5 34.5q-13 14.5 -34 22.5q-21 8 -53 8zt0 0zM295 544h-98l-118 162h65l102 -101l102 101l65 0z" />
<glyph unicode="&#290;" horiz-adv-x="671" d="M458 -111q0 -22 -10.5 -44.5q-10.5 -22.5 -25 -43.5q-14.5 -21 -30.5 -39.5q-16 -18.5 -28 -30.5l-39 22l56 92q-24 2 -41 19.5q-17 17.5 -17 42.5q0 25 18.5 44q18.5 19 44.5 19q29 0 50.5 -21q21.5 -21 21.5 -60zt0 0zM391 715q65 0 121.5 -11.5q56.5 -11.5 101.5 -31.5l-35 -87q-47 18 -90 29q-43 11 -98 11q-52 0 -96 -19q-44 -19 -76.5 -54.5q-32.5 -35.5 -50.5 -86.5q-18 -51 -18 -115q0 -68 18 -119.5q18 -51.5 50.5 -86q32.5 -34.5 76.5 -52q44 -17.5 96 -17.5q39 0 77 12.5q38 12.5 73 32.5l0 217h100v-258q-36 -27 -76 -47q-35 -18 -79.5 -32.5q-44.5 -14.5 -94.5 -14.5q-87 0 -153 26.5q-66 26.5 -110 74.5q-44 48 -66 115.5q-22 67.5 -22 148.5q0 78 22 144.5q22 66.5 66 115.5q44 49 110 77t153 28z" />
<glyph unicode="&#291;" horiz-adv-x="505" d="M409 403q14 -18 23 -38.5q9 -20.5 9 -55.5q0 -54 -21.5 -89q-21.5 -35 -57.5 -57.5q-36 -22.5 -82.5 -36.5q-46.5 -14 -96.5 -24l0 -6q73 -3 125 -15q52 -12 85 -31.5q33 -19.5 48.5 -44.5q15.5 -25 15.5 -52q0 -36 -18.5 -66q-18.5 -30 -50.5 -51.5q-32 -21.5 -75 -33.5q-43 -12 -91 -12q-57 0 -94.5 11q-37.5 11 -60.5 29q-23 18 -32.5 40.5q-9.5 22.5 -9.5 45.5q0 70 125 129l-93 13v61q29 8 57.5 16q28.5 8 57.5 18q-64 23 -93 58.5q-29 35.5 -29 97.5q0 41 14.5 74q14.5 33 40.5 56.5q26 23.5 61.5 36q35.5 12.5 78.5 12.5q24 0 53.5 -7q29.5 -7 48.5 -18l133 50v-83zM140 309q0 -49 26.5 -80q26.5 -31 78.5 -31q52 0 79 31q27 31 27 80q0 43 -27 75q-27 32 -79 32q-52 0 -78.5 -32q-26.5 -32 -26.5 -75zt0 0zM222 -140q72 0 110 23.5q38 23.5 38 61.5q0 26 -28 47.5q-28 21.5 -97 31.5q-44 -15 -71 -30.5q-27 -15.5 -41.5 -29.5q-14.5 -14 -19.5 -26q-5 -12 -5 -20q0 -26 29 -42q29 -16 85 -16zt0 0zM183 631q0 22 10.5 46q10.5 24 25.5 47q15 23 31 43q16 20 27 32l39 -22l-56 -102q24 -2 41 -19.5q17 -17.5 17 -42.5q0 -25 -18.5 -44q-18.5 -19 -44.5 -19q-29 0 -50.5 21t-21.5 60z" />
<glyph unicode="&#298;" horiz-adv-x="280" d="M40 789v70h200v-70zM90 0v700h100l0 -700z" />
<glyph unicode="&#299;" horiz-adv-x="230" d="M30 589v70h170v-70zM160 0h-90v472l90 0z" />
<glyph unicode="&#302;" horiz-adv-x="280" d="M90 0v700h100v-700q-40 -26 -51.5 -46.5q-11.5 -20.5 -11.5 -31.5q0 -8 8 -17q8 -9 30 -9q5 0 9.5 0.5q4.5 0.5 10.5 1.5l0 -34q-11 -7 -23 -12.5q-12 -5.5 -32 -5.5q-17 0 -29 5.5q-12 5.5 -19.5 14q-7.5 8.5 -10.5 19q-3 10.5 -3 19.5q0 49 68 96z" />
<glyph unicode="&#303;" horiz-adv-x="230" d="M70 0v472h90v-472q-40 -26 -51.5 -46.5q-11.5 -20.5 -11.5 -31.5q0 -8 8 -17q8 -9 30 -9q5 0 9.5 0.5q4.5 0.5 10.5 1.5l0 -34q-11 -7 -23 -12.5q-12 -5.5 -32 -5.5q-17 0 -29 5.5q-12 5.5 -19.5 14q-7.5 8.5 -10.5 19q-3 10.5 -3 19.5q0 49 68 96zM114 562q-23 0 -40.5 17q-17.5 17 -17.5 40q0 25 17.5 42.5q17.5 17.5 40.5 17.5q25 0 42 -17.5q17 -17.5 17 -42.5q0 -23 -17 -40t-42 -17z" />
<glyph unicode="&#305;" horiz-adv-x="230" d="M160 0h-90v472l90 0z" />
<glyph unicode="&#310;" horiz-adv-x="623" d="M378 -121q0 -22 -11 -46q-11 -24 -26 -47q-15 -23 -31 -43q-16 -20 -26 -32l-39 22l56 102q-24 2 -41 19.5q-17 17.5 -17 42.5q0 25 18.5 44q18.5 19 44.5 19q29 0 50.5 -21q21.5 -21 21.5 -60zt0 0zM468 0l-201 317h-77v-317h-100v700h100v-293h71l207 293h120l-237 -334l243 -366z" />
<glyph unicode="&#311;" horiz-adv-x="485" d="M314 -121q0 -22 -11 -46q-11 -24 -26 -47q-15 -23 -31 -43q-16 -20 -26 -32l-39 22l56 102q-24 2 -41 19.5q-17 17.5 -17 42.5q0 25 18.5 44q18.5 19 44.5 19q29 0 50.5 -21q21.5 -21 21.5 -60zt0 0zM283 278l181 -278h-107l-139 211l-58 -61v-150h-90v700h90v-446l203 218l107 0z" />
<glyph unicode="&#313;" horiz-adv-x="512" d="M492 0h-402v700h100v-610h302zM243 772h-65l98 162l98 0z" />
<glyph unicode="&#314;" horiz-adv-x="230" d="M160 0h-90v700h90zM92 772h-65l98 162l98 0z" />
<glyph unicode="&#315;" horiz-adv-x="512" d="M378 -121q0 -22 -11 -46q-11 -24 -26 -47q-15 -23 -31 -43q-16 -20 -26 -32l-39 22l56 102q-24 2 -41 19.5q-17 17.5 -17 42.5q0 25 18.5 44q18.5 19 44.5 19q29 0 50.5 -21q21.5 -21 21.5 -60zt0 0zM492 0h-402v700h100v-610l302 0z" />
<glyph unicode="&#316;" horiz-adv-x="230" d="M188 -121q0 -22 -11 -46q-11 -24 -26 -47q-15 -23 -31 -43q-16 -20 -26 -32l-39 22l56 102q-24 2 -41 19.5q-17 17.5 -17 42.5q0 25 18.5 44q18.5 19 44.5 19q29 0 50.5 -21q21.5 -21 21.5 -60zt0 0zM160 0h-90v700l90 0z" />
<glyph unicode="&#317;" horiz-adv-x="512" d="M492 0h-402v700h100v-610h302zM391 619q0 -22 -11 -46q-11 -24 -26 -47q-15 -23 -31 -43q-16 -20 -26 -32l-39 22l56 102q-24 2 -41 19.5q-17 17.5 -17 42.5q0 25 18.5 44q18.5 19 44.5 19q29 0 50.5 -21t21.5 -60z" />
<glyph unicode="&#318;" horiz-adv-x="358" d="M160 0h-90v700h90zM348 619q0 -22 -11 -46q-11 -24 -26 -47q-15 -23 -31 -43q-16 -20 -26 -32l-39 22l56 102q-24 2 -41 19.5q-17 17.5 -17 42.5q0 25 18.5 44q18.5 19 44.5 19q29 0 50.5 -21t21.5 -60z" />
<glyph unicode="&#321;" horiz-adv-x="512" d="M190 314v-224h302v-90h-402v256l-55 -32l-35 60l90 52v364h100v-306l83 49l35 -60z" />
<glyph unicode="&#322;" horiz-adv-x="230" d="M160 244v-244h-90v192l-59 -34l-35 60l94 54v428h90v-376l59 34l35 -60z" />
<glyph unicode="&#323;" horiz-adv-x="750" d="M660 0h-70l-410 510v-510h-90v700h70l410 -511v511h90zM342 772h-65l98 162l98 0z" />
<glyph unicode="&#324;" horiz-adv-x="563" d="M160 414q12 12 28 24.5q16 12.5 35.5 23q19.5 10.5 42.5 17.5q23 7 50 7q35 0 68.5 -12q33.5 -12 60 -38q26.5 -26 42.5 -66q16 -40 16 -96v-274h-91v274q0 37 -9 62q-9 25 -25 40.5q-16 15.5 -36.5 22q-20.5 6.5 -43.5 6.5q-16 0 -35.5 -5q-19.5 -5 -38.5 -13.5q-19 -8.5 -36 -20q-17 -11.5 -28 -24.5l0 -342h-90v472h90zM248 544h-65l98 162l98 0z" />
<glyph unicode="&#325;" horiz-adv-x="750" d="M434 -121q0 -22 -11 -46q-11 -24 -26 -47q-15 -23 -31 -43q-16 -20 -26 -32l-39 22l56 102q-24 2 -41 19.5q-17 17.5 -17 42.5q0 25 18.5 44q18.5 19 44.5 19q29 0 50.5 -21q21.5 -21 21.5 -60zt0 0zM660 0h-70l-410 510v-510h-90v700h70l410 -511v511l90 0z" />
<glyph unicode="&#326;" horiz-adv-x="563" d="M348 -121q0 -22 -11 -46q-11 -24 -26 -47q-15 -23 -31 -43q-16 -20 -26 -32l-39 22l56 102q-24 2 -41 19.5q-17 17.5 -17 42.5q0 25 18.5 44q18.5 19 44.5 19q29 0 50.5 -21q21.5 -21 21.5 -60zt0 0zM160 414q12 12 28 24.5q16 12.5 35.5 23q19.5 10.5 42.5 17.5q23 7 50 7q35 0 68.5 -12q33.5 -12 60 -38q26.5 -26 42.5 -66q16 -40 16 -96v-274h-91v274q0 37 -9 62q-9 25 -25 40.5q-16 15.5 -36.5 22q-20.5 6.5 -43.5 6.5q-16 0 -35.5 -5q-19.5 -5 -38.5 -13.5q-19 -8.5 -36 -20q-17 -11.5 -28 -24.5l0 -342h-90v472l90 0z" />
<glyph unicode="&#327;" horiz-adv-x="750" d="M660 0h-70l-410 510v-510h-90v700h70l410 -511v511h90zM424 772h-98l-118 162h65l102 -101l102 101l65 0z" />
<glyph unicode="&#328;" horiz-adv-x="563" d="M160 414q12 12 28 24.5q16 12.5 35.5 23q19.5 10.5 42.5 17.5q23 7 50 7q35 0 68.5 -12q33.5 -12 60 -38q26.5 -26 42.5 -66q16 -40 16 -96v-274h-91v274q0 37 -9 62q-9 25 -25 40.5q-16 15.5 -36.5 22q-20.5 6.5 -43.5 6.5q-16 0 -35.5 -5q-19.5 -5 -38.5 -13.5q-19 -8.5 -36 -20q-17 -11.5 -28 -24.5l0 -342h-90v472h90zM330 544h-98l-118 162h65l102 -101l102 101l65 0z" />
<glyph unicode="&#332;" horiz-adv-x="754" d="M246 789v70h261v-70zM377 -15q-81 0 -143.5 29.5q-62.5 29.5 -105.5 79.5q-43 50 -65.5 116q-22.5 66 -22.5 140q0 74 22.5 140q22.5 66 65.5 116q43 50 105.5 79.5q62.5 29.5 143.5 29.5q81 0 143.5 -29.5q62.5 -29.5 105.5 -79.5q43 -50 65.5 -116q22.5 -66 22.5 -140q0 -74 -22.5 -140q-22.5 -66 -65.5 -116q-43 -50 -105.5 -79.5q-62.5 -29.5 -143.5 -29.5zt0 0zM377 75q51 0 94.5 18.5q43.5 18.5 75 54q31.5 35.5 49.5 86.5q18 51 18 116q0 65 -18 116q-18 51 -49.5 86.5q-31.5 35.5 -75 54q-43.5 18.5 -94.5 18.5q-51 0 -94.5 -18.5q-43.5 -18.5 -75 -54q-31.5 -35.5 -49.5 -86.5q-18 -51 -18 -116q0 -65 18 -116q18 -51 49.5 -86.5q31.5 -35.5 75 -54t94.5 -18.5z" />
<glyph unicode="&#333;" horiz-adv-x="560" d="M150 589v70h260v-70zM280 -15q-50 0 -94 15.5q-44 15.5 -76.5 47q-32.5 31.5 -51 79q-18.5 47.5 -18.5 110.5q0 63 18.5 110q18.5 47 51 78.5q32.5 31.5 76.5 47q44 15.5 94 15.5q50 0 94 -16q44 -16 76.5 -47.5q32.5 -31.5 51 -78.5q18.5 -47 18.5 -110q0 -63 -18.5 -110q-18.5 -47 -51 -78.5q-32.5 -31.5 -76.5 -47q-44 -15.5 -94 -15.5zt0 0zM280 60q69 0 109.5 45.5q40.5 45.5 40.5 130.5q0 85 -40.5 131q-40.5 46 -109.5 46q-69 0 -109.5 -45.5q-40.5 -45.5 -40.5 -130.5q0 -85 40.5 -131t109.5 -46z" />
<glyph unicode="&#336;" horiz-adv-x="754" d="M377 -15q-81 0 -143.5 29.5q-62.5 29.5 -105.5 79.5q-43 50 -65.5 116q-22.5 66 -22.5 140q0 74 22.5 140q22.5 66 65.5 116q43 50 105.5 79.5q62.5 29.5 143.5 29.5q81 0 143.5 -29.5q62.5 -29.5 105.5 -79.5q43 -50 65.5 -116q22.5 -66 22.5 -140q0 -74 -22.5 -140q-22.5 -66 -65.5 -116q-43 -50 -105.5 -79.5q-62.5 -29.5 -143.5 -29.5zt0 0zM377 75q51 0 94.5 18.5q43.5 18.5 75 54q31.5 35.5 49.5 86.5q18 51 18 116q0 65 -18 116q-18 51 -49.5 86.5q-31.5 35.5 -75 54q-43.5 18.5 -94.5 18.5q-51 0 -94.5 -18.5q-43.5 -18.5 -75 -54q-31.5 -35.5 -49.5 -86.5q-18 -51 -18 -116q0 -65 18 -116q18 -51 49.5 -86.5q31.5 -35.5 75 -54q43.5 -18.5 94.5 -18.5zt0 0zM409 772h-65l98 162h98zM279 772h-65l98 162l98 0z" />
<glyph unicode="&#337;" horiz-adv-x="560" d="M280 -15q-50 0 -94 15.5q-44 15.5 -76.5 47q-32.5 31.5 -51 79q-18.5 47.5 -18.5 110.5q0 63 18.5 110q18.5 47 51 78.5q32.5 31.5 76.5 47q44 15.5 94 15.5q50 0 94 -16q44 -16 76.5 -47.5q32.5 -31.5 51 -78.5q18.5 -47 18.5 -110q0 -63 -18.5 -110q-18.5 -47 -51 -78.5q-32.5 -31.5 -76.5 -47q-44 -15.5 -94 -15.5zt0 0zM280 60q69 0 109.5 45.5q40.5 45.5 40.5 130.5q0 85 -40.5 131q-40.5 46 -109.5 46q-69 0 -109.5 -45.5q-40.5 -45.5 -40.5 -130.5q0 -85 40.5 -131q40.5 -46 109.5 -46zt0 0zM312 544h-65l98 162h98zM182 544h-65l98 162l98 0z" />
<glyph unicode="&#338;" horiz-adv-x="1022" d="M947 317h-234v-227h269v-90h-369v79q-43 -44 -102 -69q-59 -25 -134 -25q-81 0 -143.5 29.5q-62.5 29.5 -105.5 79.5q-43 50 -65.5 116q-22.5 66 -22.5 140q0 74 22.5 140q22.5 66 65.5 116q43 50 105.5 79.5q62.5 29.5 143.5 29.5q75 0 134 -25q59 -25 102 -70l0 80h358v-90h-258v-203h234zM377 75q51 0 94.5 18.5q43.5 18.5 75 54q31.5 35.5 49.5 86.5q18 51 18 116q0 65 -18 116q-18 51 -49.5 86.5q-31.5 35.5 -75 54q-43.5 18.5 -94.5 18.5q-51 0 -94.5 -18.5q-43.5 -18.5 -75 -54q-31.5 -35.5 -49.5 -86.5q-18 -51 -18 -116q0 -65 18 -116q18 -51 49.5 -86.5q31.5 -35.5 75 -54t94.5 -18.5z" />
<glyph unicode="&#339;" horiz-adv-x="883" d="M280 -15q-50 0 -94 15.5q-44 15.5 -76.5 47q-32.5 31.5 -51 79q-18.5 47.5 -18.5 110.5q0 63 18.5 110q18.5 47 51 78.5q32.5 31.5 76.5 47q44 15.5 94 15.5q61 0 111.5 -23q50.5 -23 83.5 -69q32 48 78.5 70q46.5 22 94.5 22q99 0 151 -62q52 -62 52 -193l-331 0q1 -48 13 -80q12 -32 33 -50.5q21 -18.5 50.5 -26.5q29.5 -8 64.5 -8q16 0 34.5 5.5q18.5 5.5 37 14q18.5 8.5 35 18.5q16.5 10 28.5 19l37 -65q-15 -11 -34.5 -24q-19.5 -13 -43 -24.5q-23.5 -11.5 -51 -19q-27.5 -7.5 -58.5 -7.5q-56 0 -106 23q-50 23 -83 71q-32 -48 -83.5 -71q-51.5 -23 -113.5 -23zt0 0zM280 60q69 0 109.5 45.5q40.5 45.5 40.5 130.5q0 85 -40.5 131q-40.5 46 -109.5 46q-69 0 -109.5 -45.5q-40.5 -45.5 -40.5 -130.5q0 -85 40.5 -131q40.5 -46 109.5 -46zt0 0zM651 408q-43 0 -74 -24.5q-31 -24.5 -50 -85.5l237 0q-2 25 -7.5 45q-5.5 20 -18.5 34.5q-13 14.5 -34 22.5t-53 8z" />
<glyph unicode="&#340;" horiz-adv-x="590" d="M180 0h-100v700h197q44 0 86 -12.5q42 -12.5 74.5 -39q32.5 -26.5 52.5 -66.5q20 -40 20 -95q0 -77 -37 -124.5q-37 -47.5 -92 -69.5l169 -293h-115l-159 274h-96zM180 364h79q72 0 108.5 31.5q36.5 31.5 36.5 91.5q0 60 -36.5 91.5q-36.5 31.5 -108.5 31.5h-79zM262 772h-65l98 162l98 0z" />
<glyph unicode="&#341;" horiz-adv-x="365" d="M160 324q10 37 25 64q15 27 36 46.5q21 19.5 49 32q28 12.5 63 21.5l22 -77q-104 -32 -149.5 -89.5q-45.5 -57.5 -45.5 -146.5v-175h-90v472h90zM150 544h-65l98 162l98 0z" />
<glyph unicode="&#342;" horiz-adv-x="590" d="M358 -121q0 -22 -11 -46q-11 -24 -26 -47q-15 -23 -31 -43q-16 -20 -26 -32l-39 22l56 102q-24 2 -41 19.5q-17 17.5 -17 42.5q0 25 18.5 44q18.5 19 44.5 19q29 0 50.5 -21q21.5 -21 21.5 -60zt0 0zM80 700h197q44 0 86 -12.5q42 -12.5 74.5 -39q32.5 -26.5 52.5 -66.5q20 -40 20 -95q0 -77 -37 -124.5q-37 -47.5 -92 -69.5l169 -293h-115l-159 274h-96v-274h-100zM180 610v-246h79q72 0 108.5 31.5q36.5 31.5 36.5 91.5q0 60 -36.5 91.5q-36.5 31.5 -108.5 31.5z" />
<glyph unicode="&#343;" horiz-adv-x="365" d="M185 -121q0 -22 -11 -46q-11 -24 -26 -47q-15 -23 -31 -43q-16 -20 -26 -32l-39 22l56 102q-24 2 -41 19.5q-17 17.5 -17 42.5q0 25 18.5 44q18.5 19 44.5 19q29 0 50.5 -21q21.5 -21 21.5 -60zt0 0zM160 324q10 37 25 64q15 27 36 46.5q21 19.5 49 32q28 12.5 63 21.5l22 -77q-104 -32 -149.5 -89.5q-45.5 -57.5 -45.5 -146.5v-175h-90v472l90 0z" />
<glyph unicode="&#344;" horiz-adv-x="590" d="M180 0h-100v700h197q44 0 86 -12.5q42 -12.5 74.5 -39q32.5 -26.5 52.5 -66.5q20 -40 20 -95q0 -77 -37 -124.5q-37 -47.5 -92 -69.5l169 -293h-115l-159 274h-96zM180 364h79q72 0 108.5 31.5q36.5 31.5 36.5 91.5q0 60 -36.5 91.5q-36.5 31.5 -108.5 31.5h-79zM344 772h-98l-118 162h65l102 -101l102 101l65 0z" />
<glyph unicode="&#345;" horiz-adv-x="365" d="M160 324q10 37 25 64q15 27 36 46.5q21 19.5 49 32q28 12.5 63 21.5l22 -77q-104 -32 -149.5 -89.5q-45.5 -57.5 -45.5 -146.5v-175h-90v472h90zM232 544h-98l-118 162h65l102 -101l102 101l65 0z" />
<glyph unicode="&#346;" horiz-adv-x="540" d="M232 772h-65l98 162h98zM510 198q0 -42 -17 -81q-17 -39 -50 -68q-33 -29 -80.5 -46.5q-47.5 -17.5 -108.5 -17.5q-33 0 -66.5 9q-33.5 9 -63 22.5q-29.5 13.5 -54 28q-24.5 14.5 -40.5 26.5l48 77q13 -10 34.5 -22.5q21.5 -12.5 47.5 -24q26 -11.5 54 -19q28 -7.5 55 -7.5q28 0 53 7q25 7 44 20.5q19 13.5 29.5 34q10.5 20.5 10.5 47.5q0 38 -25.5 62.5q-25.5 24.5 -63.5 44q-38 19.5 -83 37q-45 17.5 -83 42q-38 24.5 -63.5 59.5q-25.5 35 -25.5 89q0 40 13.5 76q13.5 36 43 63q29.5 27 76 42.5q46.5 15.5 112.5 15.5q23 0 47.5 -3.5q24.5 -3.5 48.5 -9.5q24 -6 45.5 -14q21.5 -8 38.5 -17l-39 -82q-12 6 -31 12q-19 6 -41 11.5q-22 5.5 -45.5 9q-23.5 3.5 -45.5 3.5q-24 0 -46 -5q-22 -5 -39 -16q-17 -11 -27 -29q-10 -18 -10 -44q0 -33 25.5 -54q25.5 -21 64.5 -39q39 -18 83.5 -36.5q44.5 -18.5 83.5 -44.5q39 -26 64.5 -64t25.5 -95z" />
<glyph unicode="&#347;" horiz-adv-x="446" d="M406 142q0 -50 -20 -81q-20 -31 -48.5 -48q-28.5 -17 -60 -22.5q-31.5 -5.5 -54.5 -5.5q-52 0 -98.5 18.5q-46.5 18.5 -84.5 47.5v70q76 -26 114.5 -41q38.5 -15 70.5 -15q50 0 71.5 15.5q21.5 15.5 21.5 45.5q0 28 -19 43q-19 15 -47 25q-28 10 -61.5 19q-33.5 9 -61.5 25q-28 16 -47 42q-19 26 -19 70q0 62 43.5 100.5q43.5 38.5 122.5 38.5q49 0 86 -8.5q37 -8.5 79 -24.5l-28 -75q-48 18 -83 24q-35 6 -68 6q-34 0 -50 -17.5q-16 -17.5 -16 -39.5q0 -25 19 -38.5q19 -13.5 47.5 -23.5q28.5 -10 62 -19q33.5 -9 62 -24.5q28.5 -15.5 47.5 -40.5q19 -25 19 -66zt0 0zM190 544h-65l98 162l98 0z" />
<glyph unicode="&#352;" horiz-adv-x="540" d="M314 772h-98l-118 162h65l102 -101l102 101h65zM510 198q0 -42 -17 -81q-17 -39 -50 -68q-33 -29 -80.5 -46.5q-47.5 -17.5 -108.5 -17.5q-33 0 -66.5 9q-33.5 9 -63 22.5q-29.5 13.5 -54 28q-24.5 14.5 -40.5 26.5l48 77q13 -10 34.5 -22.5q21.5 -12.5 47.5 -24q26 -11.5 54 -19q28 -7.5 55 -7.5q28 0 53 7q25 7 44 20.5q19 13.5 29.5 34q10.5 20.5 10.5 47.5q0 38 -25.5 62.5q-25.5 24.5 -63.5 44q-38 19.5 -83 37q-45 17.5 -83 42q-38 24.5 -63.5 59.5q-25.5 35 -25.5 89q0 40 13.5 76q13.5 36 43 63q29.5 27 76 42.5q46.5 15.5 112.5 15.5q23 0 47.5 -3.5q24.5 -3.5 48.5 -9.5q24 -6 45.5 -14q21.5 -8 38.5 -17l-39 -82q-12 6 -31 12q-19 6 -41 11.5q-22 5.5 -45.5 9q-23.5 3.5 -45.5 3.5q-24 0 -46 -5q-22 -5 -39 -16q-17 -11 -27 -29q-10 -18 -10 -44q0 -33 25.5 -54q25.5 -21 64.5 -39q39 -18 83.5 -36.5q44.5 -18.5 83.5 -44.5q39 -26 64.5 -64t25.5 -95z" />
<glyph unicode="&#353;" horiz-adv-x="446" d="M406 142q0 -50 -20 -81q-20 -31 -48.5 -48q-28.5 -17 -60 -22.5q-31.5 -5.5 -54.5 -5.5q-52 0 -98.5 18.5q-46.5 18.5 -84.5 47.5v70q76 -26 114.5 -41q38.5 -15 70.5 -15q50 0 71.5 15.5q21.5 15.5 21.5 45.5q0 28 -19 43q-19 15 -47 25q-28 10 -61.5 19q-33.5 9 -61.5 25q-28 16 -47 42q-19 26 -19 70q0 62 43.5 100.5q43.5 38.5 122.5 38.5q49 0 86 -8.5q37 -8.5 79 -24.5l-28 -75q-48 18 -83 24q-35 6 -68 6q-34 0 -50 -17.5q-16 -17.5 -16 -39.5q0 -25 19 -38.5q19 -13.5 47.5 -23.5q28.5 -10 62 -19q33.5 -9 62 -24.5q28.5 -15.5 47.5 -40.5q19 -25 19 -66zt0 0zM272 544h-98l-118 162h65l102 -101l102 101l65 0z" />
<glyph unicode="&#356;" horiz-adv-x="575" d="M560 610h-223v-610h-99v610h-223v90h545zM336 772h-98l-118 162h65l102 -101l102 101l65 0z" />
<glyph unicode="&#357;" horiz-adv-x="481" d="M341 37q-34 -17 -67.5 -29.5q-33.5 -12.5 -72.5 -12.5q-31 0 -50.5 12.5q-19.5 12.5 -31 32q-11.5 19.5 -15.5 44q-4 24.5 -4 49.5v259h-80v10l165 189h6v-119h147v-80h-147v-255q0 -32 11 -43.5q11 -11.5 28 -11.5q18 0 40 8.5q22 8.5 42 17.5zM491 619q0 -22 -11 -46q-11 -24 -26 -47q-15 -23 -31 -43q-16 -20 -26 -32l-39 22l56 102q-24 2 -41 19.5q-17 17.5 -17 42.5q0 25 18.5 44q18.5 19 44.5 19q29 0 50.5 -21t21.5 -60z" />
<glyph unicode="&#362;" horiz-adv-x="715" d="M227 789v70h261v-70zM358 75q46 0 78 12.5q32 12.5 52 34.5q20 22 28.5 51.5q8.5 29.5 8.5 62.5v464h100v-464q0 -62 -19 -109q-19 -47 -54 -78.5q-35 -31.5 -84 -47.5q-49 -16 -110 -16q-61 0 -110.5 16q-49.5 16 -84.5 47.5q-35 31.5 -54 78.5q-19 47 -19 109v464h100v-464q0 -33 9 -62.5q9 -29.5 28.5 -51.5q19.5 -22 51.5 -34.5t79 -12.5z" />
</font>
</defs>
</svg>
