<?xml version="1.0" encoding="iso-8859-1"?>
<!-- Generator: Adobe Illustrator 19.0.0, SVG Export Plug-In . SVG Version: 6.00 Build 0)  -->
<svg version="1.1" id="Layer_1" xmlns="http://www.w3.org/2000/svg" xmlns:xlink="http://www.w3.org/1999/xlink" x="0px" y="0px"
	 viewBox="0 0 511.983 511.983" style="enable-background:new 0 0 511.983 511.983;" xml:space="preserve">
<g>
	<g>
		<path d="M480.201,192.095C473.483,148.94,458,110.667,434.203,78.332c-14.672-19.937-42.889-39.701-77.42-54.225
			C319.832,8.561,278.208,0,239.553,0c-42.655,0-80.716,9.827-113.137,29.202C88.714,51.724,60.183,86.481,41.59,132.496
			c-32.983,81.645,4.094,168.525,8.422,178.166c0.969,2.141,2.625,3.922,4.718,5.031l317.271,169.041
			c1.578,0.844,3.297,1.25,5.016,1.25c1.969,0,3.922-0.547,5.656-1.625c32.498-20.281,62.732-66.904,81.528-123.09
			c0.062-0.172,0.141-0.344,0.188-0.531c0.016-0.062,0.031-0.109,0.047-0.156c5.234-15.781,9.578-32.281,12.812-49.17
			C485.013,270.803,486.045,229.539,480.201,192.095z M376.361,462.89L68.058,298.615c-3.5-8.406-11.375-29.352-15.718-56.646
			c-6-37.671-2.953-71.811,9.031-101.481c16.812-41.607,42.374-72.888,75.982-92.974c29.062-17.374,63.451-26.179,102.2-26.179
			c35.874,0,74.576,7.969,108.965,22.437c31.077,13.078,56.045,30.28,68.497,47.21c16.125,21.905,28.094,46.889,35.719,74.536
			c-15.25-2.147-40.483-5.983-69.529-11.499c-62.232-11.805-113.59-25.897-148.558-40.749c-0.141-0.062-0.281-0.109-0.422-0.164
			c-6.25-2.734-13.156-4.258-20.406-4.258c-28.155,0-51.076,22.883-51.139,51.03c0,0.023,0,0.055,0,0.078c0,0,0,0.023,0,0.031v0.008
			c-0.016,2.977,0.016,62.811,15.14,93.864c5.359,10.975,26.733,27.943,144.73,70.52c48.842,17.641,97.168,33.344,117.902,39.984
			C424.297,408.252,400.891,444.924,376.361,462.89z M243.646,159.995c0,16.437-13.375,29.812-29.827,29.812
			c-16.437,0-29.812-13.375-29.812-29.812c0-16.438,13.375-29.812,29.812-29.812C230.272,130.183,243.646,143.557,243.646,159.995z
			 M456.297,307.397c-2.391,12.484-5.453,24.795-9.062,36.748c-20.188-6.469-67.576-21.875-115.793-39.232
			c-37.109-13.359-67.389-25.234-89.998-35.297c-38.374-17.068-43.905-24.264-44.483-25.178c-5.171-10.68-8.281-26.21-10.156-41.046
			c7.844,4.906,17.109,7.75,27.015,7.75c28.203,0,51.155-22.944,51.155-51.146c0-4.672-0.641-9.188-1.828-13.492
			c74.669,24.21,167.416,37.647,194.682,41.265c0.468,2.522,0.905,5.053,1.296,7.608
			C464.593,230.438,463.608,269.17,456.297,307.397z"/>
	</g>
</g>
<g>
	<g>
		<path d="M221.366,152.448c-4.156-4.164-10.921-4.164-15.078,0c-4.172,4.172-4.172,10.922,0,15.085
			c4.156,4.172,10.921,4.172,15.078,0C225.538,163.37,225.538,156.62,221.366,152.448z"/>
	</g>
</g>
<g>
	<g>
		<path d="M448.36,201.945c-0.547-5.867-5.75-10.155-11.609-9.616c-5.875,0.547-10.172,5.749-9.625,11.608
			c0.062,0.633,5.734,63.716-9.547,106.755c-1.985,5.548,0.921,11.655,6.468,13.624c1.188,0.422,2.391,0.609,3.578,0.609
			c4.391,0,8.5-2.719,10.047-7.092C454.563,270.302,448.625,204.711,448.36,201.945z"/>
	</g>
</g>
<g>
	<g>
		<path d="M356.033,491.89L47.543,327.551c-5.203-2.781-11.656-0.812-14.437,4.391c-2.766,5.203-0.797,11.656,4.406,14.422
			l308.49,164.369c1.609,0.844,3.328,1.25,5.016,1.25c3.812,0,7.499-2.062,9.421-5.654
			C363.205,501.14,361.236,494.672,356.033,491.89z"/>
	</g>
</g>
<g>
</g>
<g>
</g>
<g>
</g>
<g>
</g>
<g>
</g>
<g>
</g>
<g>
</g>
<g>
</g>
<g>
</g>
<g>
</g>
<g>
</g>
<g>
</g>
<g>
</g>
<g>
</g>
<g>
</g>
</svg>
