<svg viewBox="0 0 512 512" xmlns="http://www.w3.org/2000/svg"><path d="m256 0c-140.609375 0-256 115.390625-256 256s115.390625 256 256 256 256-115.390625 256-256-115.390625-256-256-256zm0 421c-90.980469 0-165-74.019531-165-165s74.019531-165 165-165 165 74.019531 165 165-74.019531 165-165 165zm0 0"/><path d="m256 241c-8.277344 0-15 6.722656-15 15s6.722656 15 15 15 15-6.722656 15-15-6.722656-15-15-15zm0 0"/><path d="m326.5 198.101562 24.898438-37.5c-16.5-16.503906-37.199219-28.800781-60.296876-34.800781l-20.101562 40.199219h-30l-20.097656-40.199219c-23.101563 6-43.800782 18.296875-60.300782 34.800781l24.902344 37.5-15 25.796876-45-2.699219c-3.003906 11.101562-4.503906 22.800781-4.503906 34.800781s1.5 23.699219 4.5 34.800781l45-2.699219 15 25.796876-24.898438 37.5c16.5 16.5 37.199219 28.800781 60.296876 34.800781l20.101562-40.199219h30l20.097656 40.199219c23.101563-6 43.800782-18.300781 60.300782-34.800781l-24.902344-37.5 15-25.796876 45 2.699219c3.003906-11.101562 4.503906-22.800781 4.503906-34.800781s-1.5-23.699219-4.5-34.800781l-45 2.699219zm-70.5 102.898438c-24.8125 0-45-20.1875-45-45s20.1875-45 45-45 45 20.1875 45 45-20.1875 45-45 45zm0 0"/></svg>