<svg xmlns="http://www.w3.org/2000/svg" width="32" height="32" viewBox="0 0 32 32">
  <path fill="#000000" fill-rule="evenodd" d="M216.761905,33.2380952 L216.761905,27.1366119 C216.761905,26.7278519 216.420788,26.3809524 216,26.3809524 C215.576278,26.3809524 215.238095,26.7192727 215.238095,27.1366119 L215.238095,33.2380952 L209.136612,33.2380952 C208.727852,33.2380952 208.380952,33.5792116 208.380952,34 C208.380952,34.423722 208.719273,34.7619048 209.136612,34.7619048 L215.238095,34.7619048 L215.238095,40.8633881 C215.238095,41.2721481 215.579212,41.6190476 216,41.6190476 C216.423722,41.6190476 216.761905,41.2807273 216.761905,40.8633881 L216.761905,34.7619048 L222.863388,34.7619048 C223.272148,34.7619048 223.619048,34.4207884 223.619048,34 C223.619048,33.576278 223.280727,33.2380952 222.863388,33.2380952 L216.761905,33.2380952 Z M216,50 C207.163444,50 200,42.836556 200,34 C200,25.163444 207.163444,18 216,18 C224.836556,18 232,25.163444 232,34 C232,42.836556 224.836556,50 216,50 Z" transform="translate(-200 -18)"/>
</svg>
