<svg xmlns="http://www.w3.org/2000/svg" width="32" height="32" viewBox="0 0 32 32">
  <path fill="#000000" fill-rule="evenodd" d="M133,29 L132.666667,29.083225 L118,33.0780234 L117,33.3693108 L117,34.3680104 L117,59.6684005 L117,61 L118.333333,61 L130.333333,61 L131.666667,61 L131.666667,59.6684005 L131.666667,55.6736021 L134.333333,55.6736021 L134.333333,59.6684005 L134.333333,61 L135.666667,61 L147.666667,61 L149,61 L149,59.6684005 L149,34.3680104 L149,33.3693108 L148,33.0780234 L133.333333,29.083225 L133,29 L133,29 Z M133,31.7464239 L146.333333,35.36671 L146.333333,58.336801 L137,58.336801 L137,54.3420026 L137,53.0104031 L135.666667,53.0104031 L130.333333,53.0104031 L129,53.0104031 L129,54.3420026 L129,58.336801 L119.666667,58.336801 L119.666667,35.36671 L133,31.7464239 L133,31.7464239 Z M123.666667,37.0312094 L123.666667,39.6944083 L126.333333,39.6944083 L126.333333,37.0312094 L123.666667,37.0312094 L123.666667,37.0312094 Z M129,37.0312094 L129,39.6944083 L131.666667,39.6944083 L131.666667,37.0312094 L129,37.0312094 L129,37.0312094 Z M134.333333,37.0312094 L134.333333,39.6944083 L137,39.6944083 L137,37.0312094 L134.333333,37.0312094 L134.333333,37.0312094 Z M139.666667,37.0312094 L139.666667,39.6944083 L142.333333,39.6944083 L142.333333,37.0312094 L139.666667,37.0312094 L139.666667,37.0312094 Z M123.666667,42.3576073 L123.666667,45.0208062 L126.333333,45.0208062 L126.333333,42.3576073 L123.666667,42.3576073 L123.666667,42.3576073 Z M129,42.3576073 L129,45.0208062 L131.666667,45.0208062 L131.666667,42.3576073 L129,42.3576073 L129,42.3576073 Z M134.333333,42.3576073 L134.333333,45.0208062 L137,45.0208062 L137,42.3576073 L134.333333,42.3576073 L134.333333,42.3576073 Z M139.666667,42.3576073 L139.666667,45.0208062 L142.333333,45.0208062 L142.333333,42.3576073 L139.666667,42.3576073 L139.666667,42.3576073 Z M123.666667,47.6840052 L123.666667,50.3472042 L126.333333,50.3472042 L126.333333,47.6840052 L123.666667,47.6840052 L123.666667,47.6840052 Z M129,47.6840052 L129,50.3472042 L131.666667,50.3472042 L131.666667,47.6840052 L129,47.6840052 L129,47.6840052 Z M134.333333,47.6840052 L134.333333,50.3472042 L137,50.3472042 L137,47.6840052 L134.333333,47.6840052 L134.333333,47.6840052 Z M139.666667,47.6840052 L139.666667,50.3472042 L142.333333,50.3472042 L142.333333,47.6840052 L139.666667,47.6840052 L139.666667,47.6840052 Z M123.666667,53.0104031 L123.666667,55.6736021 L126.333333,55.6736021 L126.333333,53.0104031 L123.666667,53.0104031 L123.666667,53.0104031 Z M139.666667,53.0104031 L139.666667,55.6736021 L142.333333,55.6736021 L142.333333,53.0104031 L139.666667,53.0104031 L139.666667,53.0104031 Z" transform="translate(-117 -29)"/>
</svg>
