<svg xmlns="http://www.w3.org/2000/svg" width="32" height="32" viewBox="0 0 32 32">
  <path fill="#2B2B2B" fill-rule="evenodd" d="M103.557716,28 C96.700769,28 91.1154313,33.5853379 91.1154313,40.4422843 C91.1154313,43.422199 92.1592778,46.1509363 93.9149453,48.2964763 L84,58.2114216 L85.7885784,60 L95.7035237,50.0850547 C97.8490637,51.840722 100.577801,52.8845687 103.557716,52.8845687 C110.414662,52.8845687 116,47.299231 116,40.4422843 C116,33.5853379 110.414662,28 103.557716,28 L103.557716,28 Z M103.557716,30.4884569 C109.069801,30.4884569 113.511543,34.9301998 113.511543,40.4422843 C113.511543,45.9543693 109.069801,50.3961118 103.557716,50.3961118 C98.0456307,50.3961118 93.6038882,45.9543693 93.6038882,40.4422843 C93.6038882,34.9301998 98.0456307,30.4884569 103.557716,30.4884569 L103.557716,30.4884569 Z" transform="translate(-84 -28)"/>
</svg>
