<svg xmlns="http://www.w3.org/2000/svg" width="24" height="24" viewBox="0 0 24 24">
  <path fill="#000000" fill-rule="evenodd" d="M95.7421356,81.5421356 L95.7421356,68.7509506 C95.7421356,67.8553675 95.0257912,67.1421356 94.1421356,67.1421356 C93.2523193,67.1421356 92.5421356,67.8624266 92.5421356,68.7509506 L92.5421356,81.5421356 L79.7509506,81.5421356 C78.8553675,81.5421356 78.1421356,82.25848 78.1421356,83.1421356 C78.1421356,84.0319519 78.8624266,84.7421356 79.7509506,84.7421356 L92.5421356,84.7421356 L92.5421356,97.5333206 C92.5421356,98.4289038 93.25848,99.1421356 94.1421356,99.1421356 C95.0319519,99.1421356 95.7421356,98.4218446 95.7421356,97.5333206 L95.7421356,84.7421356 L108.533321,84.7421356 C109.428904,84.7421356 110.142136,84.0257912 110.142136,83.1421356 C110.142136,82.2523193 109.421845,81.5421356 108.533321,81.5421356 L95.7421356,81.5421356 Z" transform="rotate(45 138.847 -51.34)"/>
</svg>
