<svg xmlns="http://www.w3.org/2000/svg" width="176" height="32" viewBox="0 0 176 32">
  <path fill="#000000" fill-rule="evenodd" d="M224.666667,120 C216.56649,120 210,127.163448 210,136 C210,144.836552 216.56649,152 224.666667,152 C232.766843,152 239.333333,144.836552 239.333333,136 C239.333333,127.163448 232.766843,120 224.666667,120 L224.666667,120 Z M298,120 C289.899827,120 283.333333,127.163448 283.333333,136 C283.333333,144.836552 289.899827,152 298,152 C306.100173,152 312.666667,144.836552 312.666667,136 C312.666667,127.163448 306.100173,120 298,120 L298,120 Z M371.333333,120 C363.233161,120 356.666667,127.163448 356.666667,136 C356.666667,144.836552 363.233161,152 371.333333,152 C379.433506,152 386,144.836552 386,136 C386,127.163448 379.433506,120 371.333333,120 L371.333333,120 Z" transform="translate(-210 -120)"/>
</svg>
