<svg xmlns="http://www.w3.org/2000/svg" width="32" height="32" viewBox="0 0 32 32">
  <path fill="#000000" fill-rule="evenodd" d="M56,114 L56,116.666667 C63.3793787,116.666667 69.3333333,122.620621 69.3333333,130 C69.3333333,137.379379 63.3793787,143.333333 56,143.333333 C48.6206213,143.333333 42.6666667,137.379379 42.6666667,130 C42.6666667,125.644576 44.7800147,121.804308 48,119.375 L48,126 L50.6666667,126 L50.6666667,116.666667 L50.6666667,115.333333 L49.3333333,115.333333 L40,115.333333 L40,118 L45.4583333,118 C42.1245313,120.931618 40,125.222595 40,130 C40,138.820621 47.1793781,146 56,146 C64.8206213,146 72,138.820621 72,130 C72,121.179378 64.8206213,114 56,114 L56,114 Z" transform="translate(-40 -114)"/>
</svg>
