<svg xmlns="http://www.w3.org/2000/svg" width="36" height="32" viewBox="0 0 36 32">
  <path fill="#2B2B2B" fill-rule="evenodd" d="M153,114 L153,115.385656 L153,137.556157 L153,138.941813 L154.353846,138.941813 L159.769231,138.941813 L159.769231,143.098782 L159.769231,146 L161.969231,144.181326 L168.357692,138.941813 L186.846154,138.941813 L188.2,138.941813 L188.2,137.556157 L188.2,115.385656 L188.2,114 L186.846154,114 L154.353846,114 L153,114 L153,114 Z M155.707692,116.771313 L185.492308,116.771313 L185.492308,136.170501 L167.892308,136.170501 L167.426923,136.170501 L167.046154,136.473613 L162.476923,140.197564 L162.476923,137.556157 L162.476923,136.170501 L161.123077,136.170501 L155.707692,136.170501 L155.707692,116.771313 L155.707692,116.771313 Z M173.9,120.14885 L171.953846,122.140731 L174.830769,125.08525 L162.476923,125.08525 L162.476923,127.856563 L174.830769,127.856563 L171.869231,130.887686 L173.815385,132.879567 L179.061538,127.466847 L180.034615,126.470907 L179.061538,125.474966 L173.9,120.14885 L173.9,120.14885 Z" transform="translate(-153 -114)"/>
</svg>
