<svg xmlns="http://www.w3.org/2000/svg" width="34" height="32" viewBox="0 0 34 32">
  <path fill="#2B2B2B" fill-rule="evenodd" d="M112.8,110 L111.738562,112.419244 L107.932026,120.959908 L98.6352941,121.949599 L96,122.242841 L97.9764706,124.002291 L104.894118,130.270332 L102.954248,139.434135 L102.405229,142 L104.711111,140.680412 L112.8,135.988545 L120.888889,140.680412 L123.194771,142 L122.645752,139.434135 L120.705882,130.270332 L127.623529,124.002291 L129.6,122.242841 L126.964706,121.949599 L117.667974,120.959908 L113.861438,112.419244 L112.8,110 L112.8,110 Z M112.8,115.754868 L115.801307,122.536082 L116.094118,123.159221 L116.752941,123.232532 L124.109804,124.002291 L118.619608,128.950745 L118.10719,129.427262 L118.253595,130.087056 L119.79085,137.308133 L113.385621,133.642612 L112.8,133.27606 L112.214379,133.642612 L105.80915,137.308133 L107.346405,130.087056 L107.49281,129.427262 L106.980392,128.950745 L101.490196,124.002291 L108.847059,123.232532 L109.505882,123.159221 L109.798693,122.536082 L112.8,115.754868 L112.8,115.754868 Z" transform="translate(-96 -110)"/>
</svg>
