<svg xmlns="http://www.w3.org/2000/svg" width="26" height="32" viewBox="0 0 26 32">
  <path fill="#000000" fill-rule="evenodd" d="M161.631579,29 C160.236334,29 159.105263,30.1020683 159.105263,31.4615385 C159.105263,31.5664976 159.131652,31.667729 159.144737,31.7692308 C154.777612,32.8567852 151.526316,36.7216529 151.526316,41.3076923 L151.526316,52.3846154 C151.526316,53.0800369 150.97688,53.6153846 150.263158,53.6153846 L149,53.6153846 L149,56.0769231 L158.078947,56.0769231 C157.934618,56.465552 157.842105,56.8732406 157.842105,57.3076923 C157.842105,59.33232 159.553672,61 161.631579,61 C163.709486,61 165.421053,59.33232 165.421053,57.3076923 C165.421053,56.8732406 165.32854,56.465552 165.184211,56.0769231 L174.263158,56.0769231 L174.263158,53.6153846 L173,53.6153846 C172.286278,53.6153846 171.736842,53.0800369 171.736842,52.3846154 L171.736842,41.6538462 C171.736842,37.0279833 168.566453,32.905866 164.118421,31.7692308 C164.131506,31.667729 164.157895,31.5664976 164.157895,31.4615385 C164.157895,30.1020683 163.026824,29 161.631579,29 L161.631579,29 Z M161.078947,33.9230769 C161.262724,33.9100836 161.444287,33.9232068 161.631579,33.9230769 C161.711848,33.9230213 161.787566,33.9207119 161.868421,33.9230769 C165.994857,34.0437378 169.210526,37.568443 169.210526,41.6538462 L169.210526,52.3846154 C169.210526,52.819056 169.303035,53.2267594 169.447368,53.6153846 L153.815789,53.6153846 C153.960122,53.2267594 154.052632,52.819056 154.052632,52.3846154 L154.052632,41.3076923 C154.052632,37.3988816 157.140863,34.2015057 161.078947,33.9230769 L161.078947,33.9230769 Z M161.631579,56.0769231 C162.344162,56.0769231 162.894737,56.6133809 162.894737,57.3076923 C162.894737,58.0020037 162.344162,58.5384615 161.631579,58.5384615 C160.918996,58.5384615 160.368421,58.0020037 160.368421,57.3076923 C160.368421,56.6133809 160.918996,56.0769231 161.631579,56.0769231 L161.631579,56.0769231 Z" transform="translate(-149 -29)"/>
</svg>
