<svg xmlns="http://www.w3.org/2000/svg" width="32" height="32" viewBox="0 0 32 32">
  <path fill="#000000" fill-rule="evenodd" d="M51.600066,38.7995382 L51.600066,32.3996042 L58,32.3996042 L57.9993403,38.7995382 L51.600066,38.7995382 Z M51.600066,45.1984827 L57.9990105,45.1984827 L57.9990105,51.5994063 L51.600066,51.5994063 L51.600066,45.1984827 Z M51.600066,51.5994063 L57.9990105,51.5994063 L57.9990105,57.9996702 L51.600066,57.9996702 L51.600066,51.5994063 Z M45.2004618,26 L51.600066,26 L51.600066,32.3996042 L45.2004618,32.3996042 L45.2004618,26 Z M45.2004618,32.3996042 L51.600066,32.3996042 L51.600066,38.7992084 L45.2004618,38.7992084 L45.2004618,32.3996042 Z M45.2004618,38.7995382 L51.600066,38.7995382 L51.600066,45.2017811 L45.2004618,45.2017811 L45.2004618,38.7995382 Z M38.8015173,26 L45.2004618,26 L45.2004618,32.3996042 L38.8015173,32.3996042 L38.8015173,26 Z M38.8015173,38.7995382 L45.2004618,38.7995382 L45.2004618,45.1984827 L38.8015173,45.1984827 L38.8015173,38.7995382 Z M38.8015173,58 L38.8015173,51.600066 L45.2004618,51.5994063 L45.2004618,58 L38.8015173,58 Z M32.4009236,32.3996042 L38.8011874,32.3996042 L38.8011874,38.7992084 L32.4009236,38.7992084 L32.4009236,32.3996042 Z M32.3996042,45.1984827 L32.4009236,38.7995382 L38.8015173,38.7995382 L38.8015173,45.1984827 L32.3996042,45.1984827 Z M32.3996042,45.1984827 L38.8011874,45.1984827 L38.8011874,51.600066 L32.3996042,51.600066 L32.3996042,45.1984827 Z M26.0006597,32.3996042 L26,26 L32.3996042,26 L32.4009236,32.3996042 L26.0006597,32.3996042 Z M26,38.7995382 L26.0006597,32.3996042 L32.4009236,32.3996042 L32.4009236,38.7995382 L26,38.7995382 Z M26,45.1984827 L32.3996042,45.1984827 L32.3996042,51.600066 L26,51.600066 L26,45.1984827 Z M26,51.600066 L32.3996042,51.600066 L32.3996042,57.9996702 L26,57.9996702 L26,51.600066 Z" transform="translate(-26 -26)"/>
</svg>
